<svg width="1728" height="214" viewBox="0 0 1728 214" fill="none" xmlns="http://www.w3.org/2000/svg">
    <path fill="#fff" d="M0 0h1728v164H0z"/>
    <path fill="#fff" d="M1226 58h86v48h-86z"/>
    <path d="M1241.1 89V74.454h9.93v2.856h-6.41v2.983h5.78v2.862h-5.78V89h-3.52zm15.03 0h-3.78l4.91-14.546h4.68L1266.85 89h-3.78l-3.42-10.88h-.11L1256.13 89zm-.5-5.724h7.89v2.67h-7.89v-2.67zm19.66.497h2.84l1.21 1.54 1.58 1.82 2.44 3.003h-3.18l-1.71-2.038-1.01-1.449-2.17-2.876zm8.17-2.046c0 1.6-.31 2.957-.92 4.07-.62 1.113-1.45 1.958-2.5 2.535-1.05.578-2.23.867-3.53.867-1.3 0-2.48-.291-3.53-.874-1.04-.582-1.87-1.427-2.49-2.535-.61-1.113-.92-2.467-.92-4.063 0-1.6.31-2.957.92-4.07.62-1.112 1.45-1.957 2.49-2.535 1.05-.578 2.23-.866 3.53-.866 1.3 0 2.48.288 3.53.866 1.05.578 1.88 1.423 2.5 2.536.61 1.112.92 2.469.92 4.07zm-3.6 0c0-.947-.13-1.747-.4-2.4-.27-.654-.65-1.148-1.15-1.485-.5-.336-1.1-.504-1.8-.504-.69 0-1.29.168-1.79.504-.51.337-.89.831-1.16 1.485-.27.653-.4 1.453-.4 2.4 0 .947.13 1.747.4 2.4.27.654.65 1.149 1.16 1.485.5.336 1.1.505 1.79.505.7 0 1.3-.169 1.8-.505.5-.336.88-.83 1.15-1.484.27-.654.4-1.454.4-2.4zm17.19-.305-3.18.085a1.316 1.316 0 0 0-.27-.604c-.15-.18-.34-.32-.58-.419-.23-.104-.5-.156-.81-.156-.4 0-.74.08-1.03.242-.28.16-.42.378-.41.653-.01.213.08.398.25.554.18.156.5.282.96.376l2.11.398c1.08.209 1.89.554 2.42 1.037.54.483.81 1.122.81 1.918 0 .748-.22 1.399-.66 1.953-.44.554-1.04.985-1.79 1.292-.76.303-1.63.455-2.6.455-1.56 0-2.79-.32-3.69-.959-.89-.644-1.4-1.505-1.53-2.585l3.43-.085c.07.397.27.7.59.909.31.208.72.312 1.21.312.45 0 .81-.083 1.09-.248.28-.166.42-.386.42-.66a.69.69 0 0 0-.32-.59c-.22-.152-.55-.27-1-.355l-1.91-.363c-1.09-.198-1.9-.565-2.44-1.1-.54-.54-.8-1.227-.8-2.06 0-.73.19-1.352.59-1.868.39-.52.95-.919 1.67-1.193.73-.275 1.58-.412 2.57-.412 1.47 0 2.64.31 3.49.93.85.616 1.32 1.463 1.41 2.543z" fill="#000"/>
    <path fill="#fff" d="M1123 58h96v48h-96z"/>
    <path d="M1143.48 89h-5.38V74.454h5.37c1.48 0 2.76.292 3.83.874a5.971 5.971 0 0 1 2.48 2.5c.59 1.084.88 2.382.88 3.892 0 1.515-.29 2.817-.88 3.906a5.935 5.935 0 0 1-2.47 2.507c-1.08.578-2.36.867-3.83.867zm-1.86-2.997h1.72c.82 0 1.51-.138 2.07-.412.57-.28 1-.732 1.28-1.357.3-.63.44-1.467.44-2.514 0-1.046-.14-1.88-.44-2.5-.29-.625-.72-1.075-1.3-1.35-.56-.279-1.26-.418-2.1-.418h-1.67v8.55zM1154.71 89V74.454h10.14v2.856h-6.62v2.983h6.1v2.862h-6.1v2.99h6.62V89h-10.14zm14.34-14.546h4.36l3.69 9.006h.17l3.69-9.005h4.36V89h-3.43v-8.935h-.12l-3.49 8.843h-2.19l-3.49-8.892h-.12V89h-3.43V74.454zm34.19 7.273c0 1.6-.31 2.957-.92 4.07-.62 1.113-1.45 1.958-2.5 2.535-1.05.578-2.22.867-3.53.867-1.3 0-2.48-.291-3.53-.874-1.04-.582-1.87-1.427-2.49-2.535-.61-1.113-.92-2.467-.92-4.063 0-1.6.31-2.957.92-4.07.62-1.112 1.45-1.957 2.49-2.535 1.05-.578 2.23-.866 3.53-.866 1.31 0 2.48.288 3.53.866 1.05.578 1.88 1.423 2.5 2.536.61 1.112.92 2.469.92 4.07zm-3.59 0c0-.947-.14-1.747-.41-2.4-.26-.654-.65-1.148-1.15-1.485-.5-.336-1.1-.504-1.8-.504-.69 0-1.29.168-1.79.504-.51.337-.89.831-1.16 1.485-.27.653-.4 1.453-.4 2.4 0 .947.13 1.747.4 2.4.27.654.65 1.149 1.16 1.485.5.336 1.1.505 1.79.505.7 0 1.3-.169 1.8-.505.5-.336.89-.83 1.15-1.484.27-.654.41-1.454.41-2.4z" fill="#000"/>
    <path fill="#fff" d="M1007 58h109v48h-109z"/>
    <path d="M1025.25 89h-3.78l4.91-14.546h4.68l4.9 14.546h-3.77l-3.42-10.88h-.11L1025.25 89zm-.51-5.724h7.9v2.67h-7.9v-2.67zM1039.53 89V74.454h6.07c1.08 0 2 .154 2.73.462.74.308 1.29.739 1.66 1.293.38.554.56 1.195.56 1.924 0 .555-.11 1.05-.34 1.485-.24.43-.56.788-.96 1.072-.41.284-.88.483-1.42.597v.142c.59.028 1.13.187 1.63.476s.9.691 1.21 1.207c.3.512.45 1.118.45 1.818 0 .782-.2 1.48-.6 2.096-.39.61-.97 1.093-1.72 1.448-.75.35-1.67.526-2.74.526h-6.53zm3.52-2.834h2.17c.76 0 1.32-.144 1.68-.433.37-.289.55-.691.55-1.207 0-.374-.09-.697-.26-.966a1.74 1.74 0 0 0-.75-.632c-.32-.152-.71-.228-1.16-.228h-2.23v3.466zm0-5.731h1.94c.39 0 .73-.064 1.02-.192.3-.128.54-.313.7-.554.17-.242.26-.533.26-.874 0-.487-.18-.87-.52-1.15-.35-.28-.81-.42-1.4-.42h-2v3.19zm25.49 1.292c0 1.6-.31 2.957-.92 4.07-.62 1.113-1.45 1.958-2.5 2.535-1.05.578-2.22.867-3.53.867-1.3 0-2.48-.291-3.53-.874-1.04-.582-1.87-1.427-2.49-2.535-.61-1.113-.91-2.467-.91-4.063 0-1.6.3-2.957.91-4.07.62-1.112 1.45-1.957 2.49-2.535 1.05-.578 2.23-.866 3.53-.866 1.31 0 2.48.288 3.53.866 1.05.578 1.88 1.423 2.5 2.536.61 1.112.92 2.469.92 4.07zm-3.59 0c0-.947-.14-1.747-.41-2.4-.26-.654-.65-1.148-1.15-1.485-.5-.336-1.09-.504-1.8-.504-.69 0-1.29.168-1.79.504-.5.337-.89.831-1.16 1.485-.27.653-.4 1.453-.4 2.4 0 .947.13 1.747.4 2.4.27.654.66 1.149 1.16 1.485.5.336 1.1.505 1.79.505.71 0 1.3-.169 1.8-.505.5-.336.89-.83 1.15-1.484.27-.654.41-1.454.41-2.4zm16.44-7.273h3.51v9.383c0 1.084-.26 2.028-.77 2.834-.52.8-1.24 1.42-2.16 1.86-.93.436-2 .654-3.22.654-1.24 0-2.31-.218-3.24-.654-.92-.44-1.64-1.06-2.15-1.86-.51-.806-.77-1.75-.77-2.834v-9.383h3.52v9.077c0 .502.11.95.33 1.343.22.393.53.7.93.923.39.222.86.334 1.38.334.53 0 .99-.112 1.38-.334.4-.223.71-.53.93-.923a2.7 2.7 0 0 0 .33-1.343v-9.077zm7.24 2.856v-2.856h12.29v2.856h-4.41V89h-3.46V77.31h-4.42z" fill="#000"/>
    <path fill="#fff" d="M1319 58h152v48h-152z"/>
    <path d="M1329.1 89V74.454h3.52v11.69h6.05V89h-9.57zm26.55-7.273c0 1.6-.31 2.957-.92 4.07-.62 1.113-1.45 1.958-2.5 2.535-1.05.578-2.22.867-3.53.867-1.3 0-2.48-.291-3.53-.874-1.04-.582-1.87-1.427-2.49-2.535-.61-1.113-.92-2.467-.92-4.063 0-1.6.31-2.957.92-4.07.62-1.112 1.45-1.957 2.49-2.535 1.05-.578 2.23-.866 3.53-.866 1.31 0 2.48.288 3.53.866 1.05.578 1.88 1.423 2.5 2.536.61 1.112.92 2.469.92 4.07zm-3.59 0c0-.947-.14-1.747-.41-2.4-.26-.654-.65-1.148-1.15-1.485-.5-.336-1.1-.504-1.8-.504-.69 0-1.29.168-1.79.504-.5.337-.89.831-1.16 1.485-.27.653-.4 1.453-.4 2.4 0 .947.13 1.747.4 2.4.27.654.66 1.149 1.16 1.485.5.336 1.1.505 1.79.505.7 0 1.3-.169 1.8-.505.5-.336.89-.83 1.15-1.484.27-.654.41-1.454.41-2.4zm20.85-2.003h-3.56a2.832 2.832 0 0 0-.29-.987 2.319 2.319 0 0 0-.58-.753 2.488 2.488 0 0 0-.86-.475c-.33-.114-.69-.17-1.09-.17-.7 0-1.31.172-1.82.517-.51.346-.9.846-1.17 1.5-.27.653-.41 1.443-.41 2.371 0 .966.14 1.776.41 2.43.28.648.67 1.138 1.18 1.47.5.326 1.1.49 1.79.49.39 0 .74-.05 1.06-.15.32-.1.61-.243.85-.433.24-.194.44-.428.6-.703.16-.28.27-.594.33-.945l3.56.022a5.417 5.417 0 0 1-.57 1.903 5.923 5.923 0 0 1-3.24 2.933c-.77.303-1.66.455-2.66.455-1.31 0-2.49-.289-3.53-.867-1.04-.582-1.86-1.43-2.46-2.542-.6-1.113-.9-2.467-.9-4.063 0-1.6.3-2.957.91-4.07.61-1.112 1.44-1.957 2.48-2.535 1.04-.578 2.21-.866 3.5-.866.88 0 1.7.123 2.45.369.74.242 1.4.597 1.97 1.065a5.507 5.507 0 0 1 1.39 1.712c.35.677.57 1.451.66 2.322zm6.78 9.276h-3.78l4.91-14.546h4.68L1390.41 89h-3.78l-3.41-10.88h-.12L1379.69 89zm-.5-5.724h7.9v2.67h-7.9v-2.67zm12.49-5.966v-2.856h12.3v2.856h-4.41V89h-3.47V77.31h-4.42zm19.53-2.856V89h-3.52V74.454h3.52zm17.94 7.273c0 1.6-.31 2.957-.93 4.07-.61 1.113-1.45 1.958-2.5 2.535-1.04.578-2.22.867-3.52.867-1.31 0-2.48-.291-3.53-.874-1.05-.582-1.88-1.427-2.49-2.535-.61-1.113-.92-2.467-.92-4.063 0-1.6.31-2.957.92-4.07.61-1.112 1.44-1.957 2.49-2.535 1.05-.578 2.22-.866 3.53-.866 1.3 0 2.48.288 3.52.866 1.05.578 1.89 1.423 2.5 2.536.62 1.112.93 2.469.93 4.07zm-3.6 0c0-.947-.13-1.747-.4-2.4-.27-.654-.65-1.148-1.15-1.485-.5-.336-1.1-.504-1.8-.504s-1.3.168-1.8.504c-.5.337-.88.831-1.15 1.485-.27.653-.4 1.453-.4 2.4 0 .947.13 1.747.4 2.4.27.654.65 1.149 1.15 1.485.5.336 1.1.505 1.8.505s1.3-.169 1.8-.505c.5-.336.88-.83 1.15-1.484.27-.654.4-1.454.4-2.4zm20.03-7.273V89h-2.99l-5.78-8.395h-.1V89h-3.51V74.454h3.02l5.73 8.381h.12v-8.38h3.51zm12.07 4.361c-.05-.52-.26-.925-.63-1.214-.37-.294-.9-.44-1.59-.44-.45 0-.83.059-1.13.177-.3.118-.53.282-.68.49-.16.204-.23.438-.24.703-.01.218.04.41.13.575.1.166.24.313.43.44.19.124.41.233.68.328.26.094.56.177.89.248l1.25.284c.72.156 1.36.365 1.91.625.55.26 1.01.57 1.39.93.38.36.66.775.86 1.243.19.47.29.995.3 1.577-.01.919-.24 1.707-.7 2.365-.46.659-1.12 1.163-1.98 1.513-.86.35-1.89.526-3.11.526-1.21 0-2.27-.183-3.18-.547-.9-.365-1.6-.919-2.11-1.662-.5-.743-.76-1.683-.77-2.82h3.37c.02.469.15.86.37 1.172.22.313.53.55.92.71.39.161.85.242 1.36.242.48 0 .88-.064 1.21-.192.34-.128.59-.305.77-.533.18-.227.28-.487.28-.78 0-.276-.09-.51-.26-.704-.16-.199-.42-.37-.76-.511a7.9 7.9 0 0 0-1.31-.405l-1.52-.355c-1.26-.29-2.25-.755-2.97-1.4-.73-.648-1.09-1.524-1.08-2.627-.01-.9.23-1.688.72-2.365.49-.677 1.16-1.205 2.02-1.584.87-.379 1.85-.568 2.95-.568 1.13 0 2.11.191 2.94.575.83.379 1.47.911 1.93 1.598.46.686.7 1.482.71 2.386h-3.37z" fill="#000"/>
    <rect x="1526.5" y="58.5" width="136" height="47" rx="23.5" fill="#1E3932"/>
    <path d="M1562.43 84.188h2.53c-.04.78-.25 1.47-.64 2.07-.38.594-.91 1.06-1.59 1.398-.67.334-1.48.5-2.41.5-.74 0-1.41-.127-2-.383a4.115 4.115 0 0 1-1.5-1.093c-.41-.48-.72-1.055-.94-1.727-.21-.677-.32-1.44-.32-2.289v-.695c0-.85.11-1.612.34-2.29.22-.676.54-1.255.96-1.734.42-.479.92-.846 1.5-1.101s1.23-.383 1.95-.383c.97 0 1.79.174 2.46.523.66.35 1.18.829 1.54 1.438.37.61.59 1.305.67 2.086h-2.54a2.968 2.968 0 0 0-.25-1.117 1.5 1.5 0 0 0-.67-.696c-.31-.156-.71-.234-1.21-.234-.36 0-.68.068-.96.203-.27.135-.5.346-.68.633-.18.286-.31.65-.4 1.094-.09.437-.13.958-.13 1.562v.711c0 .599.04 1.117.12 1.555.08.437.2.8.37 1.086.18.286.41.5.68.64.28.14.61.211 1.01.211.45 0 .83-.07 1.13-.21.31-.147.54-.365.7-.657.16-.292.25-.659.28-1.102zm3.47-.329v-.164c0-.62.09-1.19.26-1.71.18-.527.44-.982.79-1.368.34-.385.76-.685 1.26-.898.5-.219 1.07-.328 1.72-.328.66 0 1.23.109 1.73.328.51.213.93.513 1.28.898.34.386.6.841.78 1.367.18.521.26 1.092.26 1.711v.164c0 .615-.08 1.185-.26 1.711-.18.521-.44.977-.78 1.368-.35.385-.77.684-1.27.898-.5.213-1.07.32-1.72.32-.65 0-1.23-.107-1.73-.32a3.426 3.426 0 0 1-1.27-.898c-.35-.391-.61-.847-.79-1.368a5.534 5.534 0 0 1-.26-1.71zm2.44-.164v.164c0 .334.03.646.08.938.06.291.15.547.28.766.12.218.28.39.49.515.21.12.46.18.76.18.29 0 .54-.06.75-.18.2-.125.36-.297.49-.516.12-.218.21-.474.26-.765.06-.292.09-.604.09-.938v-.164c0-.328-.03-.635-.09-.922-.05-.291-.14-.549-.26-.773a1.407 1.407 0 0 0-.5-.523 1.452 1.452 0 0 0-.76-.188c-.29 0-.54.063-.74.188-.21.125-.37.299-.49.523-.13.224-.22.482-.28.773a5.35 5.35 0 0 0-.08.922zm9.32-2.343V88h-2.45v-8.453h2.3l.15 1.805zm-.32 2.125-.61.015c0-.635.07-1.206.23-1.71.16-.506.38-.936.66-1.29.3-.36.64-.633 1.04-.82.41-.188.86-.281 1.35-.281.39 0 .76.057 1.08.171.33.115.61.3.85.555.24.25.42.584.54 1 .13.412.19.92.19 1.524V88h-2.45v-5.367c0-.354-.05-.628-.15-.82a.815.815 0 0 0-.44-.407 1.726 1.726 0 0 0-.68-.117c-.29 0-.54.057-.74.172-.2.11-.37.263-.5.46-.13.199-.23.43-.29.696-.06.266-.08.552-.08.86zm11.22-3.93v1.71h-5.01v-1.71h5.01zm-3.86-2.094h2.44v7.899c0 .234.03.414.09.539a.48.48 0 0 0 .28.265c.13.047.29.07.5.07a3.73 3.73 0 0 0 .66-.054v1.766c-.21.067-.43.12-.66.156-.24.041-.49.062-.77.062-.52 0-.98-.086-1.36-.258a1.794 1.794 0 0 1-.88-.812c-.2-.375-.3-.862-.3-1.461v-8.172zm9.51 8.531V82.36c0-.255-.04-.474-.12-.656a.901.901 0 0 0-.36-.43c-.17-.104-.39-.156-.65-.156-.23 0-.42.04-.59.117a.875.875 0 0 0-.37.336c-.09.146-.13.326-.13.54h-2.44c0-.38.09-.735.26-1.063.17-.328.42-.617.74-.867s.71-.443 1.15-.578c.45-.141.95-.211 1.51-.211.66 0 1.25.112 1.77.336.52.218.93.549 1.23.992.3.437.45.99.45 1.656v3.54c0 .51.03.91.09 1.202.06.287.15.537.27.75V88h-2.47c-.11-.245-.2-.547-.25-.906a6.82 6.82 0 0 1-.09-1.11zm.31-3.14.01 1.344h-1.21c-.27 0-.5.033-.7.101a1.178 1.178 0 0 0-.74.688c-.05.15-.08.317-.08.5 0 .171.05.328.13.468.08.136.2.243.34.32.15.079.32.118.51.118.32 0 .59-.063.81-.188.23-.125.41-.276.53-.453.13-.182.19-.351.19-.508l.59 1.016c-.1.208-.21.424-.35.648-.13.22-.3.425-.51.618-.21.187-.46.34-.76.46-.29.12-.64.18-1.05.18-.53 0-1.02-.107-1.45-.32a2.741 2.741 0 0 1-1.04-.898c-.25-.38-.38-.818-.38-1.313 0-.443.08-.836.24-1.18.16-.343.41-.635.73-.875.33-.24.74-.419 1.23-.539.5-.125 1.08-.187 1.74-.187h1.22zm7.28 3.414c.26 0 .48-.05.68-.149.19-.099.34-.237.44-.414.11-.182.17-.4.17-.656h2.29c0 .615-.16 1.156-.47 1.625-.32.469-.74.836-1.27 1.102-.53.26-1.13.39-1.8.39-.65 0-1.23-.107-1.72-.32a3.447 3.447 0 0 1-1.22-.914c-.33-.39-.58-.844-.74-1.36a5.408 5.408 0 0 1-.25-1.687v-.203c0-.6.08-1.159.25-1.68.16-.52.41-.976.74-1.367.33-.39.73-.693 1.22-.906.49-.219 1.06-.328 1.72-.328.69 0 1.3.132 1.83.398.54.266.96.648 1.26 1.148.3.495.45 1.092.45 1.79h-2.29c0-.271-.05-.514-.15-.727-.1-.219-.24-.39-.44-.516-.19-.13-.43-.195-.72-.195-.3 0-.54.065-.73.195-.19.125-.33.3-.43.524-.1.224-.17.479-.21.765-.03.282-.05.581-.05.899v.203c0 .323.02.63.05.922.04.286.11.539.21.758.1.218.25.39.43.515.19.125.44.188.75.188zm9.09-6.711v1.71h-5.01v-1.71h5.01zm-3.87-2.094h2.45v7.899c0 .234.03.414.08.539.06.125.16.213.29.265.13.047.29.07.5.07a3.73 3.73 0 0 0 .66-.054v1.766c-.21.067-.43.12-.66.156-.24.041-.49.062-.77.062-.53 0-.98-.086-1.37-.258a1.816 1.816 0 0 1-.87-.812c-.21-.375-.31-.862-.31-1.461v-8.172zm15.38-.828h2.55v7.469c0 .885-.19 1.63-.57 2.234-.37.604-.88 1.06-1.54 1.367-.67.308-1.43.461-2.3.461-.88 0-1.65-.153-2.31-.46a3.62 3.62 0 0 1-1.57-1.368c-.37-.604-.56-1.349-.56-2.234v-7.469h2.56v7.469c0 .49.07.89.22 1.203.15.307.36.534.64.68.28.14.62.21 1.02.21.39 0 .73-.07 1.01-.21.28-.146.49-.373.63-.68.15-.313.22-.714.22-1.203v-7.469zm8.74 9.023a.627.627 0 0 0-.15-.414c-.09-.12-.26-.229-.51-.328a6.988 6.988 0 0 0-1.04-.297 7.556 7.556 0 0 1-1.18-.343 4.28 4.28 0 0 1-.96-.524 2.277 2.277 0 0 1-.63-.734 2.071 2.071 0 0 1-.22-.977c0-.354.07-.69.22-1.008.16-.317.38-.599.67-.843.3-.245.66-.438 1.08-.578.43-.141.91-.211 1.46-.211.74 0 1.38.117 1.92.351.55.23.96.552 1.25.969.3.411.44.883.44 1.414h-2.44c0-.219-.04-.409-.12-.57a.846.846 0 0 0-.38-.375c-.17-.094-.4-.14-.68-.14-.22 0-.41.038-.58.116a.91.91 0 0 0-.38.305.781.781 0 0 0-.14.453c0 .12.03.23.08.328.06.094.14.182.26.266.12.078.27.148.46.21.19.063.43.123.7.18.59.11 1.13.264 1.61.461.49.198.88.472 1.17.82.3.35.45.81.45 1.383 0 .376-.09.72-.26 1.032-.16.312-.41.586-.72.82-.32.234-.7.417-1.14.547-.45.13-.95.195-1.5.195-.8 0-1.48-.143-2.03-.43-.55-.286-.97-.645-1.25-1.078-.27-.437-.41-.885-.41-1.343h2.29c.01.28.08.51.21.687.13.177.31.307.52.39.21.079.45.118.72.118.27 0 .49-.037.66-.11a.914.914 0 0 0 .41-.296c.09-.13.14-.279.14-.446z" fill="#fff"/>
    <rect x="1526.5" y="58.5" width="136" height="47" rx="23.5" stroke="#1E3932"/>
    <g clip-path="url(#4viibyp6ra)">
        <path d="M140.451 123.707c23.445 0 42.451-18.963 42.451-42.354 0-23.39-19.006-42.353-42.451-42.353S98 57.962 98 81.353c0 23.391 19.006 42.354 42.451 42.354z" fill="#fff"/>
        <path d="M144.765 57.291c-.392-.098-2.157-.391-4.314-.391-2.059 0-3.922.293-4.314.391-.196 0-.294-.195-.098-.293.196-.098 4.412-3.326 4.412-3.326l4.412 3.326c.196.195.098.391-.098.293zm-7.353 21.03s-.196.098-.294.294c.882.684 1.47 2.25 3.333 2.25 1.863 0 2.451-1.566 3.333-2.25-.098-.196-.294-.294-.294-.294s-1.176.294-3.039.294c-1.863 0-3.039-.294-3.039-.294zm3.039-2.64c-.49 0-.588-.197-.98-.197-.295 0-.981.294-1.177.49 0 .097.098.195.098.293.784.098 1.079.489 1.961.489.882 0 1.176-.391 1.961-.489.098-.098.098-.196.098-.293-.098-.196-.785-.49-1.177-.49-.098 0-.196.196-.784.196zm42.451 8.02c-.098.978-.098 2.054-.294 3.032-4.804.782-6.569-3.521-11.471-3.228.294 1.076.49 2.152.687 3.228 4.019 0 5.686 3.815 10.196 3.228a19.488 19.488 0 0 1-.883 3.423c-3.529.392-4.804-3.228-9.019-3.13 0 .587.098 1.174.098 1.761v.978l8.039 3.032c-.392 1.174-.882 2.25-1.373 3.326-2.451-.098-3.235-3.228-6.96-2.934-.098.782-.295 1.565-.393 2.347 3.236-.195 3.922 2.739 6.177 2.935a52.848 52.848 0 0 1-1.863 3.13c-1.372-.685-2.549-2.935-5.098-3.033.294-.782.49-1.663.686-2.445-2.255 0-4.902-.88-7.058-2.837.686-4.01-5.589-8.118-5.589-11.052 0-3.228 1.667-4.989 1.667-9.293 0-3.228-1.569-6.651-3.922-8.999-.49-.489-.882-.88-1.47-1.174 2.157 2.642 3.823 5.87 3.823 9.489 0 4.108-1.862 6.162-1.862 9.977 0 3.716 5.49 6.944 5.49 10.857 0 1.565-.49 3.032-2.059 5.966 2.451 2.446 5.686 3.815 7.745 3.815.686 0 1.079-.196 1.275-.685.196-.489.392-.88.588-1.369 2.255.098 3.235 2.152 4.51 2.934-.687.881-1.373 1.761-2.157 2.641-.785-.88-1.961-2.445-3.53-2.836-.294.587-.588 1.076-.882 1.663 1.373.391 2.353 1.76 3.137 2.738-.784.783-1.666 1.663-2.549 2.348-.588-.88-1.372-1.956-2.353-2.445-.392.489-.686.978-1.078 1.369.784.587 1.47 1.565 1.961 2.348a36.358 36.358 0 0 1-3.138 2.249c-.49-4.304-6.372-7.238-4.804-12.226-.49.88-1.176 1.956-1.176 3.325 0 3.619 3.824 6.456 4.216 10.075-.785.489-1.667.88-2.451 1.369-.098-3.912-4.216-8.314-4.216-11.542 0-3.619 4.706-7.238 4.706-11.542 0-4.303-5.49-7.238-5.49-10.955 0-3.717 2.353-5.869 2.353-10.76 0-3.52-1.667-7.042-4.314-9.39-.49-.39-.882-.684-1.471-.978 2.451 2.935 3.824 5.576 3.824 9.586 0 4.5-2.647 7.043-2.647 11.445 0 4.401 5.392 6.846 5.392 11.052 0 4.206-5 7.63-5 11.836 0 3.815 4.412 7.727 4.51 12.324l-2.941 1.174c.588-4.597-4.412-9.39-4.412-13.205 0-4.108 5.196-7.629 5.196-12.129 0-4.401-5.294-6.553-5.294-11.052 0-4.598 3.235-7.043 3.235-12.13 0-3.912-1.961-7.433-4.804-9.683l-.196-.098c-.294-.195-.49 0-.294.294 2.059 2.543 3.039 5.086 3.039 8.803 0 4.597-3.725 8.314-3.725 12.814 0 5.281 5 6.749 5 11.15 0 4.304-5.392 7.825-5.392 12.423 0 4.303 5.098 8.998 4.215 13.889-.98.293-2.059.489-3.137.685.98-6.163-4.02-10.564-4.02-14.477 0-4.303 5.589-8.216 5.589-12.422 0-4.01-4.02-5.282-4.51-9.39-.098-.587-.49-.978-1.177-.88-.784.195-1.862.684-3.431.684s-2.647-.489-3.431-.684c-.589-.098-1.079.293-1.177.88-.392 3.521-4.412 4.89-4.412 8.803 0 4.206 5.589 8.119 5.589 12.422 0 4.011-5 8.412-4.02 14.477-1.078-.196-2.059-.391-3.137-.685-.883-4.891 4.215-9.683 4.215-13.889 0-4.598-5.392-8.021-5.392-12.423 0-4.303 5-5.869 5-11.15 0-4.5-3.725-8.217-3.725-12.814 0-3.717 1.078-6.26 3.039-8.803.196-.196 0-.49-.294-.294l-.196.098a12.173 12.173 0 0 0-4.804 9.684c0 5.086 3.235 7.531 3.235 12.129 0 4.597-5.294 6.65-5.294 11.052 0 4.402 5.196 8.021 5.196 12.129 0 3.815-5 8.51-4.412 13.205-.98-.391-1.96-.684-2.941-1.174.098-4.597 4.51-8.412 4.51-12.324 0-4.206-5-7.727-5-11.836 0-4.108 5.49-6.357 5.49-10.759s-2.647-6.945-2.647-11.444c0-4.01 1.373-6.651 3.824-9.586-.589.293-.981.587-1.471.978-2.549 2.25-4.314 5.869-4.314 9.39 0 4.793 2.353 6.945 2.353 10.76 0 3.717-5.49 6.749-5.49 10.955 0 4.304 4.706 7.923 4.706 11.542 0 3.228-4.118 7.532-4.216 11.542-.882-.391-1.666-.88-2.451-1.369.294-3.62 4.216-6.456 4.216-10.075 0-1.37-.588-2.446-1.177-3.326 1.569 4.989-4.313 7.923-4.803 12.227a36.368 36.368 0 0 1-3.138-2.25c.491-.782 1.177-1.761 1.961-2.347-.392-.49-.784-.881-1.078-1.37-.981.587-1.765 1.663-2.353 2.446-.883-.783-1.667-1.566-2.549-2.348.784-.978 1.666-2.348 3.137-2.739-.294-.587-.588-1.076-.882-1.663-1.667.392-2.745 1.957-3.53 2.837-.686-.88-1.47-1.761-2.059-2.641 1.275-.783 2.255-2.837 4.51-2.934.196.489.392.88.588 1.369.196.489.589.685 1.275.685 2.059 0 5.294-1.37 7.745-3.815-1.569-2.934-2.059-4.402-2.059-5.967 0-3.912 5.49-7.14 5.49-10.857 0-3.717-1.862-5.869-1.862-9.977 0-3.62 1.666-6.847 3.823-9.488-.49.293-.98.685-1.47 1.174-2.353 2.347-3.922 5.869-3.922 8.999 0 4.303 1.667 6.064 1.667 9.292 0 2.934-6.275 7.043-5.589 11.053-2.156 1.956-4.803 2.837-7.058 2.837.196.88.392 1.662.686 2.445-2.549.098-3.726 2.347-5.098 3.032-.686-.978-1.275-2.054-1.863-3.13 2.255-.196 2.941-3.13 6.177-2.934-.196-.783-.295-1.565-.393-2.348-3.627-.293-4.509 2.837-6.96 2.934a47.168 47.168 0 0 1-1.373-3.325l8.039-3.032v-.978c0-.587 0-1.174.098-1.761-4.117-.098-5.392 3.423-9.02 3.13-.293-1.174-.587-2.25-.882-3.424 4.51.587 6.177-3.227 10.196-3.227.197-1.076.393-2.152.687-3.228-4.902-.196-6.667 4.108-11.47 3.228-.099-.978-.197-1.957-.295-3.033 5.588.587 7.647-4.01 12.745-3.423.49-1.174 1.079-2.348 1.667-3.521-6.373-.783-8.53 4.499-14.51 3.717C98.686 57.29 117.412 39 140.451 39S182.314 57.291 183 80.18c-5.98.782-8.137-4.5-14.51-3.424.588 1.174 1.177 2.348 1.667 3.521 5.098-.489 7.157 4.108 12.745 3.424zm-60.686-17.802c-3.138-1.272-6.961-.978-10.196 1.076-.491-3.032-2.157-5.673-4.412-7.238-.294-.196-.686 0-.588.39.49 6.359-3.236 11.836-7.843 16.727 4.705 1.37 8.725-4.597 14.803-2.543 2.255-3.326 5-6.163 8.236-8.412zm18.235-3.815c-3.922 0-7.255 2.25-8.137 5.086-.098.196 0 .392.294.294a5.931 5.931 0 0 1 2.353-.49c1.568 0 3.039.588 3.823 1.663.392 1.174.392 3.033 0 4.01-.686-.195-.882-.684-1.568-.684-.687 0-1.177.49-2.255.49-1.079 0-1.177-.49-1.961-.49-.882 0-.98.88-.98 1.859 0 4.401 4.019 10.466 8.333 10.466s8.333-6.065 8.333-10.466c0-.978-.196-1.859-1.078-1.957-.49.294-.883.587-1.863.587-1.078 0-1.372-.489-2.059-.489-.784 0-.686 1.663-1.666 1.76-.589-1.466-.687-3.423-.098-5.085.882-.979 2.254-1.663 3.823-1.663.882 0 1.667.195 2.353.489.294.098.392 0 .294-.294-.686-2.836-3.921-5.086-7.941-5.086zm6.373 6.358c-.981 0-2.059.293-2.746 1.076a.834.834 0 0 0 0 .684c1.667-.586 3.236-.586 3.922.196.392-.391.49-.684.49-1.076 0-.489-.588-.88-1.666-.88zM133 70.398c.784-.782 2.549-.782 4.412-.098.098-.88-1.569-1.858-3.137-1.858-1.177 0-1.765.391-1.765.978 0 .293.098.587.49.978zm27.157-14.867c-3.137.195-5.784 1.271-8.039 3.032.882-2.641 2.157-4.891 3.627-7.14-3.921.39-7.255 1.858-9.706 4.303l-1.863-4.988 4.216-3.717-5.588-.392-2.255-5.184-2.255 5.184-5.588.392 4.216 3.717-1.863 4.988c-2.451-2.445-5.784-3.912-9.706-4.304 1.471 2.25 2.647 4.5 3.627 7.14-2.156-1.76-4.902-2.836-8.039-3.031 1.863 2.445 3.53 4.988 4.706 7.727.098.293.392.391.784.293a31.561 31.561 0 0 1 14.118-3.326c5 0 9.902 1.174 14.118 3.326.294.196.588.098.784-.293 1.176-2.739 2.843-5.282 4.706-7.727zm6.765 18.78c6.078-2.152 10.098 3.912 14.803 2.543-4.607-4.89-8.333-10.368-7.843-16.726 0-.392-.294-.587-.588-.392-2.353 1.566-3.921 4.304-4.412 7.239-3.235-2.054-7.058-2.348-10.196-1.076a29.285 29.285 0 0 1 8.236 8.412zM172.51 118.131h-2.157v5.771h-.784v-5.771h-2.157v-.685h5.098v.685zm.882-.685h1.177l2.255 5.087 2.255-5.087h1.176V124h-.882v-5.478L177.02 124h-.49l-2.353-5.478V124h-.785v-6.554z" fill="#006341"/>
    </g>
    <path d="M221.801 78c-.068-.852-.388-1.517-.959-1.994-.562-.478-1.419-.716-2.569-.716-.733 0-1.334.09-1.803.268-.46.17-.801.405-1.023.703-.221.299-.336.64-.345 1.023-.017.315.039.6.166.857.137.247.35.473.64.677.289.196.66.375 1.112.537.452.162.989.307 1.611.435l2.147.46c1.449.307 2.689.712 3.721 1.215 1.031.502 1.875 1.095 2.531 1.776a6.33 6.33 0 0 1 1.444 2.276c.316.844.478 1.764.486 2.761-.008 1.722-.439 3.18-1.291 4.373-.852 1.193-2.071 2.1-3.656 2.723-1.577.622-3.473.933-5.689.933-2.276 0-4.261-.337-5.958-1.01-1.687-.673-3-1.709-3.937-3.107-.929-1.406-1.398-3.204-1.406-5.394h6.75c.042.8.243 1.474.601 2.02.358.545.86.958 1.508 1.24.656.28 1.436.421 2.34.421.758 0 1.393-.094 1.904-.281.512-.188.9-.447 1.164-.78.264-.332.4-.712.409-1.138-.009-.4-.141-.75-.396-1.048-.248-.307-.657-.58-1.228-.818-.571-.247-1.342-.477-2.314-.69l-2.608-.563c-2.318-.503-4.146-1.342-5.484-2.518-1.33-1.185-1.99-2.8-1.981-4.846-.009-1.662.434-3.115 1.329-4.359.903-1.253 2.152-2.229 3.746-2.928 1.602-.698 3.439-1.048 5.51-1.048 2.113 0 3.941.354 5.484 1.061 1.543.708 2.732 1.705 3.567 2.992.844 1.278 1.27 2.774 1.278 4.487h-6.801zm9.147-2.454v-5.728h22.756v5.728h-7.875V96h-7.006V75.546h-7.875zM259.875 96h-7.67l8.642-26.182h9.716L279.205 96h-7.671l-5.727-18.972h-.204L259.875 96zm-1.431-10.33h14.42v5.319h-14.42V85.67zM281.727 96V69.818h11.301c1.943 0 3.643.354 5.101 1.061 1.457.708 2.59 1.726 3.4 3.056s1.215 2.923 1.215 4.78c0 1.876-.418 3.457-1.253 4.744-.827 1.287-1.99 2.258-3.49 2.915-1.492.656-3.235.984-5.229.984h-6.75v-5.523h5.318c.835 0 1.547-.102 2.135-.307.597-.213 1.053-.55 1.368-1.01.324-.46.486-1.06.486-1.802 0-.75-.162-1.36-.486-1.828-.315-.478-.771-.827-1.368-1.049-.588-.23-1.3-.345-2.135-.345h-2.505V96h-7.108zm15.34-12.017L303.613 96h-7.722l-6.392-12.017h7.568zM305.773 96V69.818h11.353c1.994 0 3.669.269 5.024.806 1.363.537 2.39 1.295 3.081 2.275.699.98 1.048 2.135 1.048 3.465 0 .963-.213 1.84-.639 2.633a5.652 5.652 0 0 1-1.764 1.995c-.759.528-1.645.894-2.659 1.099v.256c1.125.042 2.147.328 3.068.856.92.52 1.653 1.24 2.199 2.16.545.913.818 1.986.818 3.222 0 1.432-.375 2.706-1.125 3.823-.742 1.116-1.798 1.994-3.171 2.633-1.372.64-3.008.959-4.909.959h-12.324zm7.108-5.676h3.324c1.193 0 2.088-.222 2.685-.665.597-.452.895-1.116.895-1.994 0-.614-.141-1.134-.422-1.56-.281-.426-.682-.75-1.202-.972-.511-.221-1.129-.332-1.853-.332h-3.427v5.523zm0-9.92h2.915c.622 0 1.172-.099 1.649-.295.478-.196.848-.477 1.113-.843.272-.375.409-.831.409-1.368 0-.81-.29-1.428-.87-1.854-.579-.435-1.312-.652-2.199-.652h-3.017v5.011zm32.434-10.586h7.108v16.773c0 1.994-.478 3.72-1.432 5.178-.946 1.448-2.267 2.57-3.963 3.362-1.696.784-3.665 1.176-5.907 1.176-2.258 0-4.235-.392-5.931-1.176-1.696-.793-3.017-1.914-3.963-3.362-.938-1.458-1.407-3.184-1.407-5.178V69.818h7.108v16.16c0 .809.179 1.533.537 2.173.358.63.852 1.125 1.483 1.483.639.358 1.364.537 2.173.537.819 0 1.543-.18 2.174-.538a3.879 3.879 0 0 0 1.483-1.482c.358-.64.537-1.364.537-2.174V69.818zm34.929 9.818h-7.21a4.9 4.9 0 0 0-.409-1.623 3.673 3.673 0 0 0-.895-1.253 3.733 3.733 0 0 0-1.368-.818c-.537-.196-1.146-.294-1.828-.294-1.193 0-2.203.29-3.03.869-.818.58-1.44 1.41-1.867 2.493-.417 1.082-.626 2.382-.626 3.9 0 1.601.213 2.944.639 4.026.435 1.074 1.061 1.884 1.879 2.43.819.536 1.803.805 2.954.805.656 0 1.244-.082 1.764-.243.52-.17.971-.414 1.355-.73.383-.314.695-.694.933-1.137.247-.452.414-.959.499-1.521l7.21.05c-.085 1.109-.396 2.238-.933 3.389-.537 1.142-1.3 2.199-2.289 3.17-.98.963-2.194 1.739-3.643 2.327-1.449.588-3.132.882-5.05.882-2.403 0-4.559-.516-6.469-1.547-1.9-1.031-3.404-2.548-4.512-4.551-1.1-2.003-1.649-4.453-1.649-7.35 0-2.916.562-5.37 1.687-7.364 1.125-2.003 2.642-3.516 4.551-4.539 1.909-1.031 4.04-1.547 6.392-1.547 1.654 0 3.175.226 4.564.678 1.389.451 2.608 1.112 3.656 1.981a9.79 9.79 0 0 1 2.532 3.184c.639 1.26 1.027 2.706 1.163 4.333zM383.469 96V69.818h7.108v10.585h.358l7.875-10.585h8.284l-8.847 11.66L407.298 96h-8.488l-5.881-9.818-2.352 3.068V96h-7.108zm39.496-18c-.068-.852-.388-1.517-.959-1.994-.562-.478-1.419-.716-2.569-.716-.733 0-1.334.09-1.803.268-.46.17-.801.405-1.022.703-.222.299-.337.64-.346 1.023-.017.315.039.6.167.857.136.247.349.473.639.677.29.196.66.375 1.112.537.452.162.989.307 1.611.435l2.147.46c1.449.307 2.689.712 3.721 1.215 1.031.502 1.875 1.095 2.531 1.776a6.33 6.33 0 0 1 1.444 2.276c.316.844.478 1.764.486 2.761-.008 1.722-.439 3.18-1.291 4.373-.852 1.193-2.071 2.1-3.656 2.723-1.577.622-3.473.933-5.689.933-2.276 0-4.261-.337-5.957-1.01-1.688-.673-3-1.709-3.938-3.107-.929-1.406-1.398-3.204-1.406-5.394h6.75c.042.8.243 1.474.601 2.02.358.545.86.958 1.508 1.24.656.28 1.436.421 2.34.421.758 0 1.393-.094 1.904-.281.512-.188.9-.447 1.164-.78.264-.332.4-.712.409-1.138-.009-.4-.141-.75-.396-1.048-.248-.307-.657-.58-1.228-.818-.571-.247-1.342-.477-2.314-.69l-2.608-.563c-2.318-.503-4.146-1.342-5.484-2.518-1.329-1.185-1.99-2.8-1.981-4.846-.009-1.662.434-3.115 1.329-4.359.904-1.253 2.152-2.229 3.746-2.928 1.602-.698 3.439-1.048 5.51-1.048 2.113 0 3.942.354 5.484 1.061 1.543.708 2.732 1.705 3.567 2.992.844 1.278 1.27 2.774 1.278 4.487h-6.801zM457.312 93V67.116h1.584v19.08h.072L467.5 75.72h1.836l-5.616 6.84L470.272 93h-1.764l-5.724-9.252-3.888 4.536V93h-1.584zm16.699 0V75.72h1.584V93h-1.584zm.828-21.456c-.384 0-.708-.132-.972-.396s-.396-.624-.396-1.08c0-.408.132-.744.396-1.008s.588-.396.972-.396c.408 0 .732.132.972.396.264.264.396.6.396 1.008 0 .456-.132.816-.396 1.08-.24.264-.564.396-.972.396zm13.699 21.888a7.362 7.362 0 0 1-3.816-1.044c-1.176-.72-2.124-1.752-2.844-3.096-.72-1.368-1.08-3-1.08-4.896 0-1.944.36-3.588 1.08-4.932.72-1.368 1.668-2.4 2.844-3.096a7.176 7.176 0 0 1 3.816-1.08c1.392 0 2.676.36 3.852 1.08 1.176.696 2.124 1.728 2.844 3.096.72 1.344 1.08 2.988 1.08 4.932 0 1.896-.36 3.528-1.08 4.896-.72 1.344-1.668 2.376-2.844 3.096a7.427 7.427 0 0 1-3.852 1.044zm0-1.404c1.176 0 2.22-.324 3.132-.972.912-.648 1.632-1.536 2.16-2.664.552-1.152.828-2.484.828-3.996 0-1.536-.276-2.88-.828-4.032-.528-1.152-1.248-2.052-2.16-2.7-.912-.648-1.956-.972-3.132-.972a5.377 5.377 0 0 0-3.132.972c-.912.648-1.632 1.548-2.16 2.7-.528 1.152-.792 2.496-.792 4.032 0 1.512.264 2.844.792 3.996.528 1.128 1.248 2.016 2.16 2.664.936.648 1.98.972 3.132.972zm17.141 1.404c-1.272 0-2.46-.228-3.564-.684-1.08-.48-2.004-1.044-2.772-1.692l.936-1.188c.744.6 1.536 1.116 2.376 1.548.84.432 1.884.648 3.132.648 1.344 0 2.364-.336 3.06-1.008.696-.696 1.044-1.5 1.044-2.412 0-.72-.216-1.32-.648-1.8a5.156 5.156 0 0 0-1.62-1.188 17.514 17.514 0 0 0-1.944-.828 33.568 33.568 0 0 1-2.556-1.044c-.816-.384-1.488-.876-2.016-1.476-.528-.624-.792-1.428-.792-2.412 0-1.272.468-2.352 1.404-3.24.96-.912 2.34-1.368 4.14-1.368.936 0 1.836.168 2.7.504.888.336 1.644.768 2.268 1.296l-.864 1.116c-.6-.432-1.224-.792-1.872-1.08-.648-.312-1.404-.468-2.268-.468-1.344 0-2.34.324-2.988.972-.624.648-.936 1.368-.936 2.16 0 .648.18 1.188.54 1.62.384.432.876.792 1.476 1.08.624.264 1.272.528 1.944.792.912.336 1.8.696 2.664 1.08.864.384 1.572.9 2.124 1.548.576.648.864 1.536.864 2.664 0 .864-.228 1.668-.684 2.412-.456.72-1.116 1.308-1.98 1.764-.864.456-1.92.684-3.168.684zM516.093 93V67.116h1.584v19.08h.072l8.532-10.476h1.836l-5.616 6.84L529.053 93h-1.764l-5.724-9.252-3.888 4.536V93h-1.584zM438 48h9v58h-9z" fill="#006341"/>
    <g filter="url(#hkkvm0x5bb)">
        <path fill="#1E3932" d="M0 144h1728v50H0z"/>
    </g>
    <defs>
        <clipPath id="4viibyp6ra">
            <path fill="#fff" transform="translate(98 39)" d="M0 0h85v85H0z"/>
        </clipPath>
        <filter id="hkkvm0x5bb" x="-6" y="142" width="1740" height="62" filterUnits="userSpaceOnUse" color-interpolation-filters="sRGB">
            <feFlood flood-opacity="0" result="BackgroundImageFix"/>
            <feColorMatrix in="SourceAlpha" values="0 0 0 0 0 0 0 0 0 0 0 0 0 0 0 0 0 0 127 0" result="hardAlpha"/>
            <feOffset dy="4"/>
            <feGaussianBlur stdDeviation="3"/>
            <feComposite in2="hardAlpha" operator="out"/>
            <feColorMatrix values="0 0 0 0 0.117647 0 0 0 0 0.223529 0 0 0 0 0.196078 0 0 0 0.25 0"/>
            <feBlend in2="BackgroundImageFix" result="effect1_dropShadow_467_2171"/>
            <feBlend in="SourceGraphic" in2="effect1_dropShadow_467_2171" result="shape"/>
        </filter>
    </defs>
</svg>
