<svg width="44" height="44" viewBox="0 0 44 44" fill="none" xmlns="http://www.w3.org/2000/svg">
<circle cx="22" cy="22" r="16" fill="#020202" fill-opacity="0.9"/>
<path d="M20 25L25.19 22L20 19V25ZM31.56 17.17C31.69 17.64 31.78 18.27 31.84 19.07C31.91 19.87 31.94 20.56 31.94 21.16L32 22C32 24.19 31.84 25.8 31.56 26.83C31.31 27.73 30.73 28.31 29.83 28.56C29.36 28.69 28.5 28.78 27.18 28.84C25.88 28.91 24.69 28.94 23.59 28.94L22 29C17.81 29 15.2 28.84 14.17 28.56C13.27 28.31 12.69 27.73 12.44 26.83C12.31 26.36 12.22 25.73 12.16 24.93C12.09 24.13 12.06 23.44 12.06 22.84L12 22C12 19.81 12.16 18.2 12.44 17.17C12.69 16.27 13.27 15.69 14.17 15.44C14.64 15.31 15.5 15.22 16.82 15.16C18.12 15.09 19.31 15.06 20.41 15.06L22 15C26.19 15 28.8 15.16 29.83 15.44C30.73 15.69 31.31 16.27 31.56 17.17Z" fill="#FFF8F4"/>
</svg>
