<svg width="44" height="44" viewBox="0 0 44 44" fill="none" xmlns="http://www.w3.org/2000/svg">
<circle cx="22" cy="22" r="16" fill="#020202" fill-opacity="0.9"/>
<path d="M19.04 31.54C20 31.83 20.97 32 22 32C24.6522 32 27.1957 30.9464 29.0711 29.0711C30.9464 27.1957 32 24.6522 32 22C32 20.6868 31.7413 19.3864 31.2388 18.1732C30.7362 16.9599 29.9997 15.8575 29.0711 14.9289C28.1425 14.0003 27.0401 13.2638 25.8268 12.7612C24.6136 12.2587 23.3132 12 22 12C20.6868 12 19.3864 12.2587 18.1732 12.7612C16.9599 13.2638 15.8575 14.0003 14.9289 14.9289C13.0536 16.8043 12 19.3478 12 22C12 26.25 14.67 29.9 18.44 31.34C18.35 30.56 18.26 29.27 18.44 28.38L19.59 23.44C19.59 23.44 19.3 22.86 19.3 21.94C19.3 20.56 20.16 19.53 21.14 19.53C22 19.53 22.4 20.16 22.4 20.97C22.4 21.83 21.83 23.06 21.54 24.24C21.37 25.22 22.06 26.08 23.06 26.08C24.84 26.08 26.22 24.18 26.22 21.5C26.22 19.1 24.5 17.46 22.03 17.46C19.21 17.46 17.55 19.56 17.55 21.77C17.55 22.63 17.83 23.5 18.29 24.07C18.38 24.13 18.38 24.21 18.35 24.36L18.06 25.45C18.06 25.62 17.95 25.68 17.78 25.56C16.5 25 15.76 23.18 15.76 21.71C15.76 18.55 18 15.68 22.32 15.68C25.76 15.68 28.44 18.15 28.44 21.43C28.44 24.87 26.31 27.63 23.26 27.63C22.29 27.63 21.34 27.11 21 26.5L20.33 28.87C20.1 29.73 19.47 30.88 19.04 31.57V31.54Z" fill="#FFF8F4"/>
</svg>
