<svg width="44" height="44" viewBox="0 0 44 44" fill="none" xmlns="http://www.w3.org/2000/svg">
<circle cx="22" cy="22" r="16" fill="#020202" fill-opacity="0.9"/>
<path d="M32.92 15C32.15 15.35 31.32 15.58 30.46 15.69C31.34 15.16 32.02 14.32 32.34 13.31C31.51 13.81 30.59 14.16 29.62 14.36C28.83 13.5 27.72 13 26.46 13C24.11 13 22.19 14.92 22.19 17.29C22.19 17.63 22.23 17.96 22.3 18.27C18.74 18.09 15.57 16.38 13.46 13.79C13.09 14.42 12.88 15.16 12.88 15.94C12.88 17.43 13.63 18.75 14.79 19.5C14.08 19.5 13.42 19.3 12.84 19C12.84 19 12.84 19 12.84 19.03C12.84 21.11 14.32 22.85 16.28 23.24C15.92 23.34 15.54 23.39 15.15 23.39C14.88 23.39 14.61 23.36 14.35 23.31C14.89 25 16.46 26.26 18.35 26.29C16.89 27.45 15.04 28.13 13.02 28.13C12.68 28.13 12.34 28.11 12 28.07C13.9 29.29 16.16 30 18.58 30C26.46 30 30.79 23.46 30.79 17.79C30.79 17.6 30.79 17.42 30.78 17.23C31.62 16.63 32.34 15.87 32.92 15Z" fill="#FFF8F4"/>
</svg>
