<svg width="44" height="44" viewBox="0 0 44 44" fill="none" xmlns="http://www.w3.org/2000/svg">
<circle cx="22" cy="22" r="16" fill="#020202" fill-opacity="0.9"/>
<path d="M22 12C16.5 12 12 16.49 12 22.02C12 27.02 15.66 31.17 20.44 31.92V24.92H17.9V22.02H20.44V19.81C20.44 17.3 21.93 15.92 24.22 15.92C25.31 15.92 26.45 16.11 26.45 16.11V18.58H25.19C23.95 18.58 23.56 19.35 23.56 20.14V22.02H26.34L25.89 24.92H23.56V31.92C25.9164 31.5478 28.0622 30.3455 29.6099 28.5301C31.1576 26.7146 32.0053 24.4056 32 22.02C32 16.49 27.5 12 22 12Z" fill="#FFF8F4"/>
</svg>
