<svg width="764" height="500" viewBox="0 0 764 500" fill="none" xmlns="http://www.w3.org/2000/svg">
<g clip-path="url(#clip0_467_2143)">
<path d="M371 70H3V438H371V70Z" fill="white"/>
<path d="M37.1034 93H26V104.103H37.1034V93Z" fill="#1E3932"/>
<path d="M48.2069 93H37.1034V104.103H48.2069V93Z" fill="#1E3932"/>
<path d="M59.3103 93H48.2069V104.103H59.3103V93Z" fill="#1E3932"/>
<path d="M70.4138 93H59.3103V104.103H70.4138V93Z" fill="#1E3932"/>
<path d="M81.5172 93H70.4138V104.103H81.5172V93Z" fill="#1E3932"/>
<path d="M92.6207 93H81.5172V104.103H92.6207V93Z" fill="#1E3932"/>
<path d="M103.724 93H92.6207V104.103H103.724V93Z" fill="#1E3932"/>
<path d="M125.931 93H114.828V104.103H125.931V93Z" fill="#1E3932"/>
<path d="M181.448 93H170.345V104.103H181.448V93Z" fill="#1E3932"/>
<path d="M203.655 93H192.552V104.103H203.655V93Z" fill="#1E3932"/>
<path d="M225.862 93H214.759V104.103H225.862V93Z" fill="#1E3932"/>
<path d="M236.966 93H225.862V104.103H236.966V93Z" fill="#1E3932"/>
<path d="M248.069 93H236.966V104.103H248.069V93Z" fill="#1E3932"/>
<path d="M259.172 93H248.069V104.103H259.172V93Z" fill="#1E3932"/>
<path d="M281.379 93H270.276V104.103H281.379V93Z" fill="#1E3932"/>
<path d="M292.483 93H281.379V104.103H292.483V93Z" fill="#1E3932"/>
<path d="M303.586 93H292.483V104.103H303.586V93Z" fill="#1E3932"/>
<path d="M314.69 93H303.586V104.103H314.69V93Z" fill="#1E3932"/>
<path d="M325.793 93H314.69V104.103H325.793V93Z" fill="#1E3932"/>
<path d="M336.897 93H325.793V104.103H336.897V93Z" fill="#1E3932"/>
<path d="M348 93H336.897V104.103H348V93Z" fill="#1E3932"/>
<path d="M37.1034 104.103H26V115.207H37.1034V104.103Z" fill="#1E3932"/>
<path d="M103.724 104.103H92.6207V115.207H103.724V104.103Z" fill="#1E3932"/>
<path d="M148.138 104.103H137.034V115.207H148.138V104.103Z" fill="#1E3932"/>
<path d="M159.241 104.103H148.138V115.207H159.241V104.103Z" fill="#1E3932"/>
<path d="M170.345 104.103H159.241V115.207H170.345V104.103Z" fill="#1E3932"/>
<path d="M181.448 104.103H170.345V115.207H181.448V104.103Z" fill="#1E3932"/>
<path d="M214.759 104.103H203.655V115.207H214.759V104.103Z" fill="#1E3932"/>
<path d="M225.862 104.103H214.759V115.207H225.862V104.103Z" fill="#1E3932"/>
<path d="M236.966 104.103H225.862V115.207H236.966V104.103Z" fill="#1E3932"/>
<path d="M248.069 104.103H236.966V115.207H248.069V104.103Z" fill="#1E3932"/>
<path d="M259.172 104.103H248.069V115.207H259.172V104.103Z" fill="#1E3932"/>
<path d="M281.379 104.103H270.276V115.207H281.379V104.103Z" fill="#1E3932"/>
<path d="M348 104.103H336.897V115.207H348V104.103Z" fill="#1E3932"/>
<path d="M37.1034 115.207H26V126.31H37.1034V115.207Z" fill="#1E3932"/>
<path d="M59.3103 115.207H48.2069V126.31H59.3103V115.207Z" fill="#1E3932"/>
<path d="M70.4138 115.207H59.3103V126.31H70.4138V115.207Z" fill="#1E3932"/>
<path d="M81.5172 115.207H70.4138V126.31H81.5172V115.207Z" fill="#1E3932"/>
<path d="M103.724 115.207H92.6207V126.31H103.724V115.207Z" fill="#1E3932"/>
<path d="M137.034 115.207H125.931V126.31H137.034V115.207Z" fill="#1E3932"/>
<path d="M181.448 115.207H170.345V126.31H181.448V115.207Z" fill="#1E3932"/>
<path d="M214.759 115.207H203.655V126.31H214.759V115.207Z" fill="#1E3932"/>
<path d="M248.069 115.207H236.966V126.31H248.069V115.207Z" fill="#1E3932"/>
<path d="M259.172 115.207H248.069V126.31H259.172V115.207Z" fill="#1E3932"/>
<path d="M281.379 115.207H270.276V126.31H281.379V115.207Z" fill="#1E3932"/>
<path d="M303.586 115.207H292.483V126.31H303.586V115.207Z" fill="#1E3932"/>
<path d="M314.69 115.207H303.586V126.31H314.69V115.207Z" fill="#1E3932"/>
<path d="M325.793 115.207H314.69V126.31H325.793V115.207Z" fill="#1E3932"/>
<path d="M348 115.207H336.897V126.31H348V115.207Z" fill="#1E3932"/>
<path d="M37.1034 126.31H26V137.414H37.1034V126.31Z" fill="#1E3932"/>
<path d="M59.3103 126.31H48.2069V137.414H59.3103V126.31Z" fill="#1E3932"/>
<path d="M70.4138 126.31H59.3103V137.414H70.4138V126.31Z" fill="#1E3932"/>
<path d="M81.5172 126.31H70.4138V137.414H81.5172V126.31Z" fill="#1E3932"/>
<path d="M103.724 126.31H92.6207V137.414H103.724V126.31Z" fill="#1E3932"/>
<path d="M125.931 126.31H114.828V137.414H125.931V126.31Z" fill="#1E3932"/>
<path d="M148.138 126.31H137.034V137.414H148.138V126.31Z" fill="#1E3932"/>
<path d="M159.241 126.31H148.138V137.414H159.241V126.31Z" fill="#1E3932"/>
<path d="M170.345 126.31H159.241V137.414H170.345V126.31Z" fill="#1E3932"/>
<path d="M214.759 126.31H203.655V137.414H214.759V126.31Z" fill="#1E3932"/>
<path d="M225.862 126.31H214.759V137.414H225.862V126.31Z" fill="#1E3932"/>
<path d="M281.379 126.31H270.276V137.414H281.379V126.31Z" fill="#1E3932"/>
<path d="M303.586 126.31H292.483V137.414H303.586V126.31Z" fill="#1E3932"/>
<path d="M314.69 126.31H303.586V137.414H314.69V126.31Z" fill="#1E3932"/>
<path d="M325.793 126.31H314.69V137.414H325.793V126.31Z" fill="#1E3932"/>
<path d="M348 126.31H336.897V137.414H348V126.31Z" fill="#1E3932"/>
<path d="M37.1034 137.414H26V148.517H37.1034V137.414Z" fill="#1E3932"/>
<path d="M59.3103 137.414H48.2069V148.517H59.3103V137.414Z" fill="#1E3932"/>
<path d="M70.4138 137.414H59.3103V148.517H70.4138V137.414Z" fill="#1E3932"/>
<path d="M81.5172 137.414H70.4138V148.517H81.5172V137.414Z" fill="#1E3932"/>
<path d="M103.724 137.414H92.6207V148.517H103.724V137.414Z" fill="#1E3932"/>
<path d="M125.931 137.414H114.828V148.517H125.931V137.414Z" fill="#1E3932"/>
<path d="M137.034 137.414H125.931V148.517H137.034V137.414Z" fill="#1E3932"/>
<path d="M159.241 137.414H148.138V148.517H159.241V137.414Z" fill="#1E3932"/>
<path d="M181.448 137.414H170.345V148.517H181.448V137.414Z" fill="#1E3932"/>
<path d="M203.655 137.414H192.552V148.517H203.655V137.414Z" fill="#1E3932"/>
<path d="M236.966 137.414H225.862V148.517H236.966V137.414Z" fill="#1E3932"/>
<path d="M281.379 137.414H270.276V148.517H281.379V137.414Z" fill="#1E3932"/>
<path d="M303.586 137.414H292.483V148.517H303.586V137.414Z" fill="#1E3932"/>
<path d="M314.69 137.414H303.586V148.517H314.69V137.414Z" fill="#1E3932"/>
<path d="M325.793 137.414H314.69V148.517H325.793V137.414Z" fill="#1E3932"/>
<path d="M348 137.414H336.897V148.517H348V137.414Z" fill="#1E3932"/>
<path d="M37.1034 148.517H26V159.621H37.1034V148.517Z" fill="#1E3932"/>
<path d="M103.724 148.517H92.6207V159.621H103.724V148.517Z" fill="#1E3932"/>
<path d="M125.931 148.517H114.828V159.621H125.931V148.517Z" fill="#1E3932"/>
<path d="M159.241 148.517H148.138V159.621H159.241V148.517Z" fill="#1E3932"/>
<path d="M214.759 148.517H203.655V159.621H214.759V148.517Z" fill="#1E3932"/>
<path d="M236.966 148.517H225.862V159.621H236.966V148.517Z" fill="#1E3932"/>
<path d="M281.379 148.517H270.276V159.621H281.379V148.517Z" fill="#1E3932"/>
<path d="M348 148.517H336.897V159.621H348V148.517Z" fill="#1E3932"/>
<path d="M37.1034 159.621H26V170.724H37.1034V159.621Z" fill="#1E3932"/>
<path d="M48.2069 159.621H37.1034V170.724H48.2069V159.621Z" fill="#1E3932"/>
<path d="M59.3103 159.621H48.2069V170.724H59.3103V159.621Z" fill="#1E3932"/>
<path d="M70.4138 159.621H59.3103V170.724H70.4138V159.621Z" fill="#1E3932"/>
<path d="M81.5172 159.621H70.4138V170.724H81.5172V159.621Z" fill="#1E3932"/>
<path d="M92.6207 159.621H81.5172V170.724H92.6207V159.621Z" fill="#1E3932"/>
<path d="M103.724 159.621H92.6207V170.724H103.724V159.621Z" fill="#1E3932"/>
<path d="M125.931 159.621H114.828V170.724H125.931V159.621Z" fill="#1E3932"/>
<path d="M148.138 159.621H137.034V170.724H148.138V159.621Z" fill="#1E3932"/>
<path d="M170.345 159.621H159.241V170.724H170.345V159.621Z" fill="#1E3932"/>
<path d="M192.552 159.621H181.448V170.724H192.552V159.621Z" fill="#1E3932"/>
<path d="M214.759 159.621H203.655V170.724H214.759V159.621Z" fill="#1E3932"/>
<path d="M236.966 159.621H225.862V170.724H236.966V159.621Z" fill="#1E3932"/>
<path d="M259.172 159.621H248.069V170.724H259.172V159.621Z" fill="#1E3932"/>
<path d="M281.379 159.621H270.276V170.724H281.379V159.621Z" fill="#1E3932"/>
<path d="M292.483 159.621H281.379V170.724H292.483V159.621Z" fill="#1E3932"/>
<path d="M303.586 159.621H292.483V170.724H303.586V159.621Z" fill="#1E3932"/>
<path d="M314.69 159.621H303.586V170.724H314.69V159.621Z" fill="#1E3932"/>
<path d="M325.793 159.621H314.69V170.724H325.793V159.621Z" fill="#1E3932"/>
<path d="M336.897 159.621H325.793V170.724H336.897V159.621Z" fill="#1E3932"/>
<path d="M348 159.621H336.897V170.724H348V159.621Z" fill="#1E3932"/>
<path d="M125.931 170.724H114.828V181.828H125.931V170.724Z" fill="#1E3932"/>
<path d="M137.034 170.724H125.931V181.828H137.034V170.724Z" fill="#1E3932"/>
<path d="M203.655 170.724H192.552V181.828H203.655V170.724Z" fill="#1E3932"/>
<path d="M248.069 170.724H236.966V181.828H248.069V170.724Z" fill="#1E3932"/>
<path d="M37.1034 181.828H26V192.931H37.1034V181.828Z" fill="#1E3932"/>
<path d="M48.2069 181.828H37.1034V192.931H48.2069V181.828Z" fill="#1E3932"/>
<path d="M59.3103 181.828H48.2069V192.931H59.3103V181.828Z" fill="#1E3932"/>
<path d="M81.5172 181.828H70.4138V192.931H81.5172V181.828Z" fill="#1E3932"/>
<path d="M103.724 181.828H92.6207V192.931H103.724V181.828Z" fill="#1E3932"/>
<path d="M125.931 181.828H114.828V192.931H125.931V181.828Z" fill="#1E3932"/>
<path d="M148.138 181.828H137.034V192.931H148.138V181.828Z" fill="#1E3932"/>
<path d="M159.241 181.828H148.138V192.931H159.241V181.828Z" fill="#1E3932"/>
<path d="M192.552 181.828H181.448V192.931H192.552V181.828Z" fill="#1E3932"/>
<path d="M203.655 181.828H192.552V192.931H203.655V181.828Z" fill="#1E3932"/>
<path d="M214.759 181.828H203.655V192.931H214.759V181.828Z" fill="#1E3932"/>
<path d="M225.862 181.828H214.759V192.931H225.862V181.828Z" fill="#1E3932"/>
<path d="M259.172 181.828H248.069V192.931H259.172V181.828Z" fill="#1E3932"/>
<path d="M270.276 181.828H259.172V192.931H270.276V181.828Z" fill="#1E3932"/>
<path d="M281.379 181.828H270.276V192.931H281.379V181.828Z" fill="#1E3932"/>
<path d="M292.483 181.828H281.379V192.931H292.483V181.828Z" fill="#1E3932"/>
<path d="M303.586 181.828H292.483V192.931H303.586V181.828Z" fill="#1E3932"/>
<path d="M314.69 181.828H303.586V192.931H314.69V181.828Z" fill="#1E3932"/>
<path d="M348 181.828H336.897V192.931H348V181.828Z" fill="#1E3932"/>
<path d="M37.1034 192.931H26V204.034H37.1034V192.931Z" fill="#1E3932"/>
<path d="M59.3103 192.931H48.2069V204.034H59.3103V192.931Z" fill="#1E3932"/>
<path d="M125.931 192.931H114.828V204.034H125.931V192.931Z" fill="#1E3932"/>
<path d="M137.034 192.931H125.931V204.034H137.034V192.931Z" fill="#1E3932"/>
<path d="M170.345 192.931H159.241V204.034H170.345V192.931Z" fill="#1E3932"/>
<path d="M203.655 192.931H192.552V204.034H203.655V192.931Z" fill="#1E3932"/>
<path d="M225.862 192.931H214.759V204.034H225.862V192.931Z" fill="#1E3932"/>
<path d="M236.966 192.931H225.862V204.034H236.966V192.931Z" fill="#1E3932"/>
<path d="M270.276 192.931H259.172V204.034H270.276V192.931Z" fill="#1E3932"/>
<path d="M281.379 192.931H270.276V204.034H281.379V192.931Z" fill="#1E3932"/>
<path d="M292.483 192.931H281.379V204.034H292.483V192.931Z" fill="#1E3932"/>
<path d="M303.586 192.931H292.483V204.034H303.586V192.931Z" fill="#1E3932"/>
<path d="M348 192.931H336.897V204.034H348V192.931Z" fill="#1E3932"/>
<path d="M70.4138 204.034H59.3103V215.138H70.4138V204.034Z" fill="#1E3932"/>
<path d="M81.5172 204.034H70.4138V215.138H81.5172V204.034Z" fill="#1E3932"/>
<path d="M92.6207 204.034H81.5172V215.138H92.6207V204.034Z" fill="#1E3932"/>
<path d="M103.724 204.034H92.6207V215.138H103.724V204.034Z" fill="#1E3932"/>
<path d="M125.931 204.034H114.828V215.138H125.931V204.034Z" fill="#1E3932"/>
<path d="M137.034 204.034H125.931V215.138H137.034V204.034Z" fill="#1E3932"/>
<path d="M159.241 204.034H148.138V215.138H159.241V204.034Z" fill="#1E3932"/>
<path d="M170.345 204.034H159.241V215.138H170.345V204.034Z" fill="#1E3932"/>
<path d="M181.448 204.034H170.345V215.138H181.448V204.034Z" fill="#1E3932"/>
<path d="M192.552 204.034H181.448V215.138H192.552V204.034Z" fill="#1E3932"/>
<path d="M203.655 204.034H192.552V215.138H203.655V204.034Z" fill="#1E3932"/>
<path d="M236.966 204.034H225.862V215.138H236.966V204.034Z" fill="#1E3932"/>
<path d="M248.069 204.034H236.966V215.138H248.069V204.034Z" fill="#1E3932"/>
<path d="M292.483 204.034H281.379V215.138H292.483V204.034Z" fill="#1E3932"/>
<path d="M303.586 204.034H292.483V215.138H303.586V204.034Z" fill="#1E3932"/>
<path d="M314.69 204.034H303.586V215.138H314.69V204.034Z" fill="#1E3932"/>
<path d="M336.897 204.034H325.793V215.138H336.897V204.034Z" fill="#1E3932"/>
<path d="M348 204.034H336.897V215.138H348V204.034Z" fill="#1E3932"/>
<path d="M59.3103 215.138H48.2069V226.241H59.3103V215.138Z" fill="#1E3932"/>
<path d="M92.6207 215.138H81.5172V226.241H92.6207V215.138Z" fill="#1E3932"/>
<path d="M181.448 215.138H170.345V226.241H181.448V215.138Z" fill="#1E3932"/>
<path d="M192.552 215.138H181.448V226.241H192.552V215.138Z" fill="#1E3932"/>
<path d="M225.862 215.138H214.759V226.241H225.862V215.138Z" fill="#1E3932"/>
<path d="M248.069 215.138H236.966V226.241H248.069V215.138Z" fill="#1E3932"/>
<path d="M259.172 215.138H248.069V226.241H259.172V215.138Z" fill="#1E3932"/>
<path d="M270.276 215.138H259.172V226.241H270.276V215.138Z" fill="#1E3932"/>
<path d="M281.379 215.138H270.276V226.241H281.379V215.138Z" fill="#1E3932"/>
<path d="M303.586 215.138H292.483V226.241H303.586V215.138Z" fill="#1E3932"/>
<path d="M314.69 215.138H303.586V226.241H314.69V215.138Z" fill="#1E3932"/>
<path d="M325.793 215.138H314.69V226.241H325.793V215.138Z" fill="#1E3932"/>
<path d="M336.897 215.138H325.793V226.241H336.897V215.138Z" fill="#1E3932"/>
<path d="M348 215.138H336.897V226.241H348V215.138Z" fill="#1E3932"/>
<path d="M37.1034 226.241H26V237.345H37.1034V226.241Z" fill="#1E3932"/>
<path d="M70.4138 226.241H59.3103V237.345H70.4138V226.241Z" fill="#1E3932"/>
<path d="M81.5172 226.241H70.4138V237.345H81.5172V226.241Z" fill="#1E3932"/>
<path d="M92.6207 226.241H81.5172V237.345H92.6207V226.241Z" fill="#1E3932"/>
<path d="M103.724 226.241H92.6207V237.345H103.724V226.241Z" fill="#1E3932"/>
<path d="M125.931 226.241H114.828V237.345H125.931V226.241Z" fill="#1E3932"/>
<path d="M148.138 226.241H137.034V237.345H148.138V226.241Z" fill="#1E3932"/>
<path d="M159.241 226.241H148.138V237.345H159.241V226.241Z" fill="#1E3932"/>
<path d="M203.655 226.241H192.552V237.345H203.655V226.241Z" fill="#1E3932"/>
<path d="M214.759 226.241H203.655V237.345H214.759V226.241Z" fill="#1E3932"/>
<path d="M225.862 226.241H214.759V237.345H225.862V226.241Z" fill="#1E3932"/>
<path d="M248.069 226.241H236.966V237.345H248.069V226.241Z" fill="#1E3932"/>
<path d="M259.172 226.241H248.069V237.345H259.172V226.241Z" fill="#1E3932"/>
<path d="M270.276 226.241H259.172V237.345H270.276V226.241Z" fill="#1E3932"/>
<path d="M281.379 226.241H270.276V237.345H281.379V226.241Z" fill="#1E3932"/>
<path d="M314.69 226.241H303.586V237.345H314.69V226.241Z" fill="#1E3932"/>
<path d="M325.793 226.241H314.69V237.345H325.793V226.241Z" fill="#1E3932"/>
<path d="M348 226.241H336.897V237.345H348V226.241Z" fill="#1E3932"/>
<path d="M37.1034 237.345H26V248.448H37.1034V237.345Z" fill="#1E3932"/>
<path d="M48.2069 237.345H37.1034V248.448H48.2069V237.345Z" fill="#1E3932"/>
<path d="M59.3103 237.345H48.2069V248.448H59.3103V237.345Z" fill="#1E3932"/>
<path d="M81.5172 237.345H70.4138V248.448H81.5172V237.345Z" fill="#1E3932"/>
<path d="M92.6207 237.345H81.5172V248.448H92.6207V237.345Z" fill="#1E3932"/>
<path d="M125.931 237.345H114.828V248.448H125.931V237.345Z" fill="#1E3932"/>
<path d="M170.345 237.345H159.241V248.448H170.345V237.345Z" fill="#1E3932"/>
<path d="M203.655 237.345H192.552V248.448H203.655V237.345Z" fill="#1E3932"/>
<path d="M236.966 237.345H225.862V248.448H236.966V237.345Z" fill="#1E3932"/>
<path d="M248.069 237.345H236.966V248.448H248.069V237.345Z" fill="#1E3932"/>
<path d="M259.172 237.345H248.069V248.448H259.172V237.345Z" fill="#1E3932"/>
<path d="M270.276 237.345H259.172V248.448H270.276V237.345Z" fill="#1E3932"/>
<path d="M281.379 237.345H270.276V248.448H281.379V237.345Z" fill="#1E3932"/>
<path d="M292.483 237.345H281.379V248.448H292.483V237.345Z" fill="#1E3932"/>
<path d="M303.586 237.345H292.483V248.448H303.586V237.345Z" fill="#1E3932"/>
<path d="M325.793 237.345H314.69V248.448H325.793V237.345Z" fill="#1E3932"/>
<path d="M348 237.345H336.897V248.448H348V237.345Z" fill="#1E3932"/>
<path d="M37.1034 248.448H26V259.552H37.1034V248.448Z" fill="#1E3932"/>
<path d="M48.2069 248.448H37.1034V259.552H48.2069V248.448Z" fill="#1E3932"/>
<path d="M59.3103 248.448H48.2069V259.552H59.3103V248.448Z" fill="#1E3932"/>
<path d="M70.4138 248.448H59.3103V259.552H70.4138V248.448Z" fill="#1E3932"/>
<path d="M92.6207 248.448H81.5172V259.552H92.6207V248.448Z" fill="#1E3932"/>
<path d="M103.724 248.448H92.6207V259.552H103.724V248.448Z" fill="#1E3932"/>
<path d="M114.828 248.448H103.724V259.552H114.828V248.448Z" fill="#1E3932"/>
<path d="M125.931 248.448H114.828V259.552H125.931V248.448Z" fill="#1E3932"/>
<path d="M137.034 248.448H125.931V259.552H137.034V248.448Z" fill="#1E3932"/>
<path d="M148.138 248.448H137.034V259.552H148.138V248.448Z" fill="#1E3932"/>
<path d="M159.241 248.448H148.138V259.552H159.241V248.448Z" fill="#1E3932"/>
<path d="M170.345 248.448H159.241V259.552H170.345V248.448Z" fill="#1E3932"/>
<path d="M192.552 248.448H181.448V259.552H192.552V248.448Z" fill="#1E3932"/>
<path d="M203.655 248.448H192.552V259.552H203.655V248.448Z" fill="#1E3932"/>
<path d="M236.966 248.448H225.862V259.552H236.966V248.448Z" fill="#1E3932"/>
<path d="M314.69 248.448H303.586V259.552H314.69V248.448Z" fill="#1E3932"/>
<path d="M348 248.448H336.897V259.552H348V248.448Z" fill="#1E3932"/>
<path d="M37.1034 259.552H26V270.655H37.1034V259.552Z" fill="#1E3932"/>
<path d="M48.2069 259.552H37.1034V270.655H48.2069V259.552Z" fill="#1E3932"/>
<path d="M70.4138 259.552H59.3103V270.655H70.4138V259.552Z" fill="#1E3932"/>
<path d="M81.5172 259.552H70.4138V270.655H81.5172V259.552Z" fill="#1E3932"/>
<path d="M125.931 259.552H114.828V270.655H125.931V259.552Z" fill="#1E3932"/>
<path d="M159.241 259.552H148.138V270.655H159.241V259.552Z" fill="#1E3932"/>
<path d="M192.552 259.552H181.448V270.655H192.552V259.552Z" fill="#1E3932"/>
<path d="M203.655 259.552H192.552V270.655H203.655V259.552Z" fill="#1E3932"/>
<path d="M214.759 259.552H203.655V270.655H214.759V259.552Z" fill="#1E3932"/>
<path d="M225.862 259.552H214.759V270.655H225.862V259.552Z" fill="#1E3932"/>
<path d="M236.966 259.552H225.862V270.655H236.966V259.552Z" fill="#1E3932"/>
<path d="M259.172 259.552H248.069V270.655H259.172V259.552Z" fill="#1E3932"/>
<path d="M270.276 259.552H259.172V270.655H270.276V259.552Z" fill="#1E3932"/>
<path d="M281.379 259.552H270.276V270.655H281.379V259.552Z" fill="#1E3932"/>
<path d="M292.483 259.552H281.379V270.655H292.483V259.552Z" fill="#1E3932"/>
<path d="M303.586 259.552H292.483V270.655H303.586V259.552Z" fill="#1E3932"/>
<path d="M314.69 259.552H303.586V270.655H314.69V259.552Z" fill="#1E3932"/>
<path d="M325.793 259.552H314.69V270.655H325.793V259.552Z" fill="#1E3932"/>
<path d="M348 259.552H336.897V270.655H348V259.552Z" fill="#1E3932"/>
<path d="M103.724 270.655H92.6207V281.759H103.724V270.655Z" fill="#1E3932"/>
<path d="M125.931 270.655H114.828V281.759H125.931V270.655Z" fill="#1E3932"/>
<path d="M170.345 270.655H159.241V281.759H170.345V270.655Z" fill="#1E3932"/>
<path d="M203.655 270.655H192.552V281.759H203.655V270.655Z" fill="#1E3932"/>
<path d="M214.759 270.655H203.655V281.759H214.759V270.655Z" fill="#1E3932"/>
<path d="M236.966 270.655H225.862V281.759H236.966V270.655Z" fill="#1E3932"/>
<path d="M248.069 270.655H236.966V281.759H248.069V270.655Z" fill="#1E3932"/>
<path d="M259.172 270.655H248.069V281.759H259.172V270.655Z" fill="#1E3932"/>
<path d="M292.483 270.655H281.379V281.759H292.483V270.655Z" fill="#1E3932"/>
<path d="M314.69 270.655H303.586V281.759H314.69V270.655Z" fill="#1E3932"/>
<path d="M336.897 270.655H325.793V281.759H336.897V270.655Z" fill="#1E3932"/>
<path d="M37.1034 281.759H26V292.862H37.1034V281.759Z" fill="#1E3932"/>
<path d="M48.2069 281.759H37.1034V292.862H48.2069V281.759Z" fill="#1E3932"/>
<path d="M70.4138 281.759H59.3103V292.862H70.4138V281.759Z" fill="#1E3932"/>
<path d="M125.931 281.759H114.828V292.862H125.931V281.759Z" fill="#1E3932"/>
<path d="M137.034 281.759H125.931V292.862H137.034V281.759Z" fill="#1E3932"/>
<path d="M148.138 281.759H137.034V292.862H148.138V281.759Z" fill="#1E3932"/>
<path d="M159.241 281.759H148.138V292.862H159.241V281.759Z" fill="#1E3932"/>
<path d="M181.448 281.759H170.345V292.862H181.448V281.759Z" fill="#1E3932"/>
<path d="M192.552 281.759H181.448V292.862H192.552V281.759Z" fill="#1E3932"/>
<path d="M225.862 281.759H214.759V292.862H225.862V281.759Z" fill="#1E3932"/>
<path d="M259.172 281.759H248.069V292.862H259.172V281.759Z" fill="#1E3932"/>
<path d="M281.379 281.759H270.276V292.862H281.379V281.759Z" fill="#1E3932"/>
<path d="M292.483 281.759H281.379V292.862H292.483V281.759Z" fill="#1E3932"/>
<path d="M325.793 281.759H314.69V292.862H325.793V281.759Z" fill="#1E3932"/>
<path d="M37.1034 292.862H26V303.966H37.1034V292.862Z" fill="#1E3932"/>
<path d="M48.2069 292.862H37.1034V303.966H48.2069V292.862Z" fill="#1E3932"/>
<path d="M81.5172 292.862H70.4138V303.966H81.5172V292.862Z" fill="#1E3932"/>
<path d="M103.724 292.862H92.6207V303.966H103.724V292.862Z" fill="#1E3932"/>
<path d="M137.034 292.862H125.931V303.966H137.034V292.862Z" fill="#1E3932"/>
<path d="M170.345 292.862H159.241V303.966H170.345V292.862Z" fill="#1E3932"/>
<path d="M181.448 292.862H170.345V303.966H181.448V292.862Z" fill="#1E3932"/>
<path d="M236.966 292.862H225.862V303.966H236.966V292.862Z" fill="#1E3932"/>
<path d="M248.069 292.862H236.966V303.966H248.069V292.862Z" fill="#1E3932"/>
<path d="M270.276 292.862H259.172V303.966H270.276V292.862Z" fill="#1E3932"/>
<path d="M48.2069 303.966H37.1034V315.069H48.2069V303.966Z" fill="#1E3932"/>
<path d="M70.4138 303.966H59.3103V315.069H70.4138V303.966Z" fill="#1E3932"/>
<path d="M81.5172 303.966H70.4138V315.069H81.5172V303.966Z" fill="#1E3932"/>
<path d="M125.931 303.966H114.828V315.069H125.931V303.966Z" fill="#1E3932"/>
<path d="M137.034 303.966H125.931V315.069H137.034V303.966Z" fill="#1E3932"/>
<path d="M159.241 303.966H148.138V315.069H159.241V303.966Z" fill="#1E3932"/>
<path d="M192.552 303.966H181.448V315.069H192.552V303.966Z" fill="#1E3932"/>
<path d="M203.655 303.966H192.552V315.069H203.655V303.966Z" fill="#1E3932"/>
<path d="M225.862 303.966H214.759V315.069H225.862V303.966Z" fill="#1E3932"/>
<path d="M236.966 303.966H225.862V315.069H236.966V303.966Z" fill="#1E3932"/>
<path d="M248.069 303.966H236.966V315.069H248.069V303.966Z" fill="#1E3932"/>
<path d="M259.172 303.966H248.069V315.069H259.172V303.966Z" fill="#1E3932"/>
<path d="M270.276 303.966H259.172V315.069H270.276V303.966Z" fill="#1E3932"/>
<path d="M281.379 303.966H270.276V315.069H281.379V303.966Z" fill="#1E3932"/>
<path d="M292.483 303.966H281.379V315.069H292.483V303.966Z" fill="#1E3932"/>
<path d="M303.586 303.966H292.483V315.069H303.586V303.966Z" fill="#1E3932"/>
<path d="M314.69 303.966H303.586V315.069H314.69V303.966Z" fill="#1E3932"/>
<path d="M325.793 303.966H314.69V315.069H325.793V303.966Z" fill="#1E3932"/>
<path d="M348 303.966H336.897V315.069H348V303.966Z" fill="#1E3932"/>
<path d="M48.2069 315.069H37.1034V326.172H48.2069V315.069Z" fill="#1E3932"/>
<path d="M59.3103 315.069H48.2069V326.172H59.3103V315.069Z" fill="#1E3932"/>
<path d="M70.4138 315.069H59.3103V326.172H70.4138V315.069Z" fill="#1E3932"/>
<path d="M81.5172 315.069H70.4138V326.172H81.5172V315.069Z" fill="#1E3932"/>
<path d="M92.6207 315.069H81.5172V326.172H92.6207V315.069Z" fill="#1E3932"/>
<path d="M103.724 315.069H92.6207V326.172H103.724V315.069Z" fill="#1E3932"/>
<path d="M114.828 315.069H103.724V326.172H114.828V315.069Z" fill="#1E3932"/>
<path d="M125.931 315.069H114.828V326.172H125.931V315.069Z" fill="#1E3932"/>
<path d="M170.345 315.069H159.241V326.172H170.345V315.069Z" fill="#1E3932"/>
<path d="M192.552 315.069H181.448V326.172H192.552V315.069Z" fill="#1E3932"/>
<path d="M203.655 315.069H192.552V326.172H203.655V315.069Z" fill="#1E3932"/>
<path d="M214.759 315.069H203.655V326.172H214.759V315.069Z" fill="#1E3932"/>
<path d="M225.862 315.069H214.759V326.172H225.862V315.069Z" fill="#1E3932"/>
<path d="M259.172 315.069H248.069V326.172H259.172V315.069Z" fill="#1E3932"/>
<path d="M270.276 315.069H259.172V326.172H270.276V315.069Z" fill="#1E3932"/>
<path d="M281.379 315.069H270.276V326.172H281.379V315.069Z" fill="#1E3932"/>
<path d="M292.483 315.069H281.379V326.172H292.483V315.069Z" fill="#1E3932"/>
<path d="M303.586 315.069H292.483V326.172H303.586V315.069Z" fill="#1E3932"/>
<path d="M348 315.069H336.897V326.172H348V315.069Z" fill="#1E3932"/>
<path d="M125.931 326.172H114.828V337.276H125.931V326.172Z" fill="#1E3932"/>
<path d="M137.034 326.172H125.931V337.276H137.034V326.172Z" fill="#1E3932"/>
<path d="M148.138 326.172H137.034V337.276H148.138V326.172Z" fill="#1E3932"/>
<path d="M159.241 326.172H148.138V337.276H159.241V326.172Z" fill="#1E3932"/>
<path d="M181.448 326.172H170.345V337.276H181.448V326.172Z" fill="#1E3932"/>
<path d="M236.966 326.172H225.862V337.276H236.966V326.172Z" fill="#1E3932"/>
<path d="M248.069 326.172H236.966V337.276H248.069V326.172Z" fill="#1E3932"/>
<path d="M259.172 326.172H248.069V337.276H259.172V326.172Z" fill="#1E3932"/>
<path d="M303.586 326.172H292.483V337.276H303.586V326.172Z" fill="#1E3932"/>
<path d="M314.69 326.172H303.586V337.276H314.69V326.172Z" fill="#1E3932"/>
<path d="M348 326.172H336.897V337.276H348V326.172Z" fill="#1E3932"/>
<path d="M37.1034 337.276H26V348.379H37.1034V337.276Z" fill="#1E3932"/>
<path d="M48.2069 337.276H37.1034V348.379H48.2069V337.276Z" fill="#1E3932"/>
<path d="M59.3103 337.276H48.2069V348.379H59.3103V337.276Z" fill="#1E3932"/>
<path d="M70.4138 337.276H59.3103V348.379H70.4138V337.276Z" fill="#1E3932"/>
<path d="M81.5172 337.276H70.4138V348.379H81.5172V337.276Z" fill="#1E3932"/>
<path d="M92.6207 337.276H81.5172V348.379H92.6207V337.276Z" fill="#1E3932"/>
<path d="M103.724 337.276H92.6207V348.379H103.724V337.276Z" fill="#1E3932"/>
<path d="M170.345 337.276H159.241V348.379H170.345V337.276Z" fill="#1E3932"/>
<path d="M181.448 337.276H170.345V348.379H181.448V337.276Z" fill="#1E3932"/>
<path d="M192.552 337.276H181.448V348.379H192.552V337.276Z" fill="#1E3932"/>
<path d="M203.655 337.276H192.552V348.379H203.655V337.276Z" fill="#1E3932"/>
<path d="M236.966 337.276H225.862V348.379H236.966V337.276Z" fill="#1E3932"/>
<path d="M259.172 337.276H248.069V348.379H259.172V337.276Z" fill="#1E3932"/>
<path d="M281.379 337.276H270.276V348.379H281.379V337.276Z" fill="#1E3932"/>
<path d="M303.586 337.276H292.483V348.379H303.586V337.276Z" fill="#1E3932"/>
<path d="M336.897 337.276H325.793V348.379H336.897V337.276Z" fill="#1E3932"/>
<path d="M348 337.276H336.897V348.379H348V337.276Z" fill="#1E3932"/>
<path d="M37.1034 348.379H26V359.483H37.1034V348.379Z" fill="#1E3932"/>
<path d="M103.724 348.379H92.6207V359.483H103.724V348.379Z" fill="#1E3932"/>
<path d="M137.034 348.379H125.931V359.483H137.034V348.379Z" fill="#1E3932"/>
<path d="M148.138 348.379H137.034V359.483H148.138V348.379Z" fill="#1E3932"/>
<path d="M170.345 348.379H159.241V359.483H170.345V348.379Z" fill="#1E3932"/>
<path d="M192.552 348.379H181.448V359.483H192.552V348.379Z" fill="#1E3932"/>
<path d="M203.655 348.379H192.552V359.483H203.655V348.379Z" fill="#1E3932"/>
<path d="M248.069 348.379H236.966V359.483H248.069V348.379Z" fill="#1E3932"/>
<path d="M259.172 348.379H248.069V359.483H259.172V348.379Z" fill="#1E3932"/>
<path d="M303.586 348.379H292.483V359.483H303.586V348.379Z" fill="#1E3932"/>
<path d="M314.69 348.379H303.586V359.483H314.69V348.379Z" fill="#1E3932"/>
<path d="M325.793 348.379H314.69V359.483H325.793V348.379Z" fill="#1E3932"/>
<path d="M336.897 348.379H325.793V359.483H336.897V348.379Z" fill="#1E3932"/>
<path d="M37.1034 359.483H26V370.586H37.1034V359.483Z" fill="#1E3932"/>
<path d="M59.3103 359.483H48.2069V370.586H59.3103V359.483Z" fill="#1E3932"/>
<path d="M70.4138 359.483H59.3103V370.586H70.4138V359.483Z" fill="#1E3932"/>
<path d="M81.5172 359.483H70.4138V370.586H81.5172V359.483Z" fill="#1E3932"/>
<path d="M103.724 359.483H92.6207V370.586H103.724V359.483Z" fill="#1E3932"/>
<path d="M125.931 359.483H114.828V370.586H125.931V359.483Z" fill="#1E3932"/>
<path d="M137.034 359.483H125.931V370.586H137.034V359.483Z" fill="#1E3932"/>
<path d="M181.448 359.483H170.345V370.586H181.448V359.483Z" fill="#1E3932"/>
<path d="M203.655 359.483H192.552V370.586H203.655V359.483Z" fill="#1E3932"/>
<path d="M225.862 359.483H214.759V370.586H225.862V359.483Z" fill="#1E3932"/>
<path d="M248.069 359.483H236.966V370.586H248.069V359.483Z" fill="#1E3932"/>
<path d="M259.172 359.483H248.069V370.586H259.172V359.483Z" fill="#1E3932"/>
<path d="M270.276 359.483H259.172V370.586H270.276V359.483Z" fill="#1E3932"/>
<path d="M281.379 359.483H270.276V370.586H281.379V359.483Z" fill="#1E3932"/>
<path d="M292.483 359.483H281.379V370.586H292.483V359.483Z" fill="#1E3932"/>
<path d="M303.586 359.483H292.483V370.586H303.586V359.483Z" fill="#1E3932"/>
<path d="M325.793 359.483H314.69V370.586H325.793V359.483Z" fill="#1E3932"/>
<path d="M348 359.483H336.897V370.586H348V359.483Z" fill="#1E3932"/>
<path d="M37.1034 370.586H26V381.69H37.1034V370.586Z" fill="#1E3932"/>
<path d="M59.3103 370.586H48.2069V381.69H59.3103V370.586Z" fill="#1E3932"/>
<path d="M70.4138 370.586H59.3103V381.69H70.4138V370.586Z" fill="#1E3932"/>
<path d="M81.5172 370.586H70.4138V381.69H81.5172V370.586Z" fill="#1E3932"/>
<path d="M103.724 370.586H92.6207V381.69H103.724V370.586Z" fill="#1E3932"/>
<path d="M159.241 370.586H148.138V381.69H159.241V370.586Z" fill="#1E3932"/>
<path d="M181.448 370.586H170.345V381.69H181.448V370.586Z" fill="#1E3932"/>
<path d="M214.759 370.586H203.655V381.69H214.759V370.586Z" fill="#1E3932"/>
<path d="M236.966 370.586H225.862V381.69H236.966V370.586Z" fill="#1E3932"/>
<path d="M248.069 370.586H236.966V381.69H248.069V370.586Z" fill="#1E3932"/>
<path d="M259.172 370.586H248.069V381.69H259.172V370.586Z" fill="#1E3932"/>
<path d="M270.276 370.586H259.172V381.69H270.276V370.586Z" fill="#1E3932"/>
<path d="M281.379 370.586H270.276V381.69H281.379V370.586Z" fill="#1E3932"/>
<path d="M303.586 370.586H292.483V381.69H303.586V370.586Z" fill="#1E3932"/>
<path d="M336.897 370.586H325.793V381.69H336.897V370.586Z" fill="#1E3932"/>
<path d="M348 370.586H336.897V381.69H348V370.586Z" fill="#1E3932"/>
<path d="M37.1034 381.69H26V392.793H37.1034V381.69Z" fill="#1E3932"/>
<path d="M59.3103 381.69H48.2069V392.793H59.3103V381.69Z" fill="#1E3932"/>
<path d="M70.4138 381.69H59.3103V392.793H70.4138V381.69Z" fill="#1E3932"/>
<path d="M81.5172 381.69H70.4138V392.793H81.5172V381.69Z" fill="#1E3932"/>
<path d="M103.724 381.69H92.6207V392.793H103.724V381.69Z" fill="#1E3932"/>
<path d="M125.931 381.69H114.828V392.793H125.931V381.69Z" fill="#1E3932"/>
<path d="M137.034 381.69H125.931V392.793H137.034V381.69Z" fill="#1E3932"/>
<path d="M148.138 381.69H137.034V392.793H148.138V381.69Z" fill="#1E3932"/>
<path d="M181.448 381.69H170.345V392.793H181.448V381.69Z" fill="#1E3932"/>
<path d="M192.552 381.69H181.448V392.793H192.552V381.69Z" fill="#1E3932"/>
<path d="M203.655 381.69H192.552V392.793H203.655V381.69Z" fill="#1E3932"/>
<path d="M225.862 381.69H214.759V392.793H225.862V381.69Z" fill="#1E3932"/>
<path d="M248.069 381.69H236.966V392.793H248.069V381.69Z" fill="#1E3932"/>
<path d="M259.172 381.69H248.069V392.793H259.172V381.69Z" fill="#1E3932"/>
<path d="M325.793 381.69H314.69V392.793H325.793V381.69Z" fill="#1E3932"/>
<path d="M336.897 381.69H325.793V392.793H336.897V381.69Z" fill="#1E3932"/>
<path d="M37.1034 392.793H26V403.897H37.1034V392.793Z" fill="#1E3932"/>
<path d="M103.724 392.793H92.6207V403.897H103.724V392.793Z" fill="#1E3932"/>
<path d="M125.931 392.793H114.828V403.897H125.931V392.793Z" fill="#1E3932"/>
<path d="M137.034 392.793H125.931V403.897H137.034V392.793Z" fill="#1E3932"/>
<path d="M181.448 392.793H170.345V403.897H181.448V392.793Z" fill="#1E3932"/>
<path d="M225.862 392.793H214.759V403.897H225.862V392.793Z" fill="#1E3932"/>
<path d="M259.172 392.793H248.069V403.897H259.172V392.793Z" fill="#1E3932"/>
<path d="M292.483 392.793H281.379V403.897H292.483V392.793Z" fill="#1E3932"/>
<path d="M303.586 392.793H292.483V403.897H303.586V392.793Z" fill="#1E3932"/>
<path d="M325.793 392.793H314.69V403.897H325.793V392.793Z" fill="#1E3932"/>
<path d="M37.1034 403.897H26V415H37.1034V403.897Z" fill="#1E3932"/>
<path d="M48.2069 403.897H37.1034V415H48.2069V403.897Z" fill="#1E3932"/>
<path d="M59.3103 403.897H48.2069V415H59.3103V403.897Z" fill="#1E3932"/>
<path d="M70.4138 403.897H59.3103V415H70.4138V403.897Z" fill="#1E3932"/>
<path d="M81.5172 403.897H70.4138V415H81.5172V403.897Z" fill="#1E3932"/>
<path d="M92.6207 403.897H81.5172V415H92.6207V403.897Z" fill="#1E3932"/>
<path d="M103.724 403.897H92.6207V415H103.724V403.897Z" fill="#1E3932"/>
<path d="M125.931 403.897H114.828V415H125.931V403.897Z" fill="#1E3932"/>
<path d="M159.241 403.897H148.138V415H159.241V403.897Z" fill="#1E3932"/>
<path d="M170.345 403.897H159.241V415H170.345V403.897Z" fill="#1E3932"/>
<path d="M181.448 403.897H170.345V415H181.448V403.897Z" fill="#1E3932"/>
<path d="M192.552 403.897H181.448V415H192.552V403.897Z" fill="#1E3932"/>
<path d="M203.655 403.897H192.552V415H203.655V403.897Z" fill="#1E3932"/>
<path d="M236.966 403.897H225.862V415H236.966V403.897Z" fill="#1E3932"/>
<path d="M292.483 403.897H281.379V415H292.483V403.897Z" fill="#1E3932"/>
<path d="M303.586 403.897H292.483V415H303.586V403.897Z" fill="#1E3932"/>
<path d="M314.69 403.897H303.586V415H314.69V403.897Z" fill="#1E3932"/>
<path d="M325.793 403.897H314.69V415H325.793V403.897Z" fill="#1E3932"/>
<path d="M336.897 403.897H325.793V415H336.897V403.897Z" fill="#1E3932"/>
</g>
<g clip-path="url(#clip1_467_2143)">
<path d="M574.426 256.555C610.007 256.555 638.851 227.777 638.851 192.277C638.851 156.778 610.007 128 574.426 128C538.844 128 510 156.778 510 192.277C510 227.777 538.844 256.555 574.426 256.555Z" fill="white"/>
<path d="M580.972 155.759C580.377 155.611 577.699 155.166 574.426 155.166C571.301 155.166 568.474 155.611 567.879 155.759C567.581 155.759 567.433 155.463 567.73 155.314C568.028 155.166 574.426 150.267 574.426 150.267L581.121 155.314C581.419 155.611 581.27 155.908 580.972 155.759ZM569.813 187.675C569.813 187.675 569.516 187.824 569.367 188.121C570.706 189.16 571.599 191.535 574.426 191.535C577.253 191.535 578.145 189.16 579.484 188.121C579.336 187.824 579.038 187.675 579.038 187.675C579.038 187.675 577.253 188.121 574.426 188.121C571.599 188.121 569.813 187.675 569.813 187.675ZM574.426 183.667C573.682 183.667 573.533 183.371 572.938 183.371C572.491 183.371 571.45 183.816 571.152 184.113C571.152 184.261 571.301 184.41 571.301 184.558C572.491 184.707 572.938 185.3 574.277 185.3C575.616 185.3 576.062 184.707 577.253 184.558C577.401 184.41 577.401 184.261 577.401 184.113C577.253 183.816 576.211 183.371 575.616 183.371C575.467 183.371 575.318 183.667 574.426 183.667ZM638.851 195.84C638.702 197.325 638.702 198.957 638.405 200.442C631.114 201.629 628.436 195.098 620.997 195.543C621.443 197.176 621.74 198.809 622.038 200.442C628.138 200.442 630.668 206.231 637.512 205.341C637.215 207.122 636.768 208.903 636.173 210.536C630.817 211.13 628.882 205.638 622.484 205.786C622.484 206.677 622.633 207.567 622.633 208.458V209.942L634.834 214.544C634.239 216.326 633.495 217.959 632.751 219.591C629.031 219.443 627.841 214.693 622.187 215.138C622.038 216.326 621.74 217.513 621.592 218.701C626.502 218.404 627.543 222.857 630.965 223.154C630.073 224.787 629.18 226.272 628.138 227.905C626.055 226.865 624.27 223.451 620.401 223.303C620.848 222.115 621.145 220.779 621.443 219.591C618.021 219.591 614.003 218.255 610.73 215.287C611.772 209.2 602.249 202.965 602.249 198.512C602.249 193.613 604.779 190.941 604.779 184.41C604.779 179.511 602.398 174.315 598.827 170.753C598.083 170.01 597.488 169.417 596.595 168.971C599.869 172.979 602.398 177.878 602.398 183.371C602.398 189.605 599.571 192.723 599.571 198.512C599.571 204.153 607.903 209.052 607.903 214.99C607.903 217.365 607.159 219.591 604.779 224.045C608.498 227.756 613.408 229.834 616.533 229.834C617.574 229.834 618.17 229.537 618.467 228.795C618.765 228.053 619.062 227.459 619.36 226.717C622.782 226.865 624.27 229.983 626.204 231.17C625.163 232.506 624.121 233.842 622.931 235.178C621.74 233.842 619.955 231.467 617.574 230.873C617.128 231.764 616.682 232.506 616.235 233.397C618.318 233.991 619.806 236.069 620.997 237.554C619.806 238.741 618.467 240.077 617.128 241.116C616.235 239.78 615.045 238.147 613.557 237.405C612.962 238.147 612.516 238.89 611.92 239.483C613.111 240.374 614.152 241.858 614.896 243.046C613.408 244.234 611.772 245.421 610.135 246.46C609.391 239.929 600.464 235.475 602.844 227.905C602.1 229.241 601.059 230.873 601.059 232.952C601.059 238.444 606.862 242.749 607.457 248.242C606.266 248.984 604.927 249.578 603.737 250.32C603.588 244.382 597.339 237.702 597.339 232.803C597.339 227.311 604.481 221.818 604.481 215.287C604.481 208.755 596.149 204.301 596.149 198.661C596.149 193.02 599.72 189.754 599.72 182.331C599.72 176.987 597.19 171.643 593.173 168.081C592.429 167.487 591.834 167.041 590.941 166.596C594.661 171.049 596.744 175.058 596.744 181.144C596.744 187.972 592.727 191.832 592.727 198.512C592.727 205.192 600.91 208.903 600.91 215.287C600.91 221.67 593.322 226.865 593.322 233.249C593.322 239.038 600.017 244.976 600.166 251.953C598.678 252.547 597.19 253.14 595.702 253.734C596.595 246.757 589.007 239.483 589.007 233.694C589.007 227.459 596.893 222.115 596.893 215.287C596.893 208.606 588.858 205.341 588.858 198.512C588.858 191.535 593.768 187.824 593.768 180.105C593.768 174.167 590.792 168.823 586.478 165.409L586.18 165.26C585.734 164.963 585.436 165.26 585.734 165.705C588.858 169.565 590.346 173.425 590.346 179.066C590.346 186.043 584.692 191.684 584.692 198.512C584.692 206.528 592.28 208.755 592.28 215.435C592.28 221.967 584.097 227.311 584.097 234.288C584.097 240.819 591.834 247.945 590.495 255.367C589.007 255.812 587.37 256.109 585.734 256.406C587.221 247.054 579.633 240.374 579.633 234.436C579.633 227.904 588.114 221.967 588.114 215.583C588.114 209.497 582.014 207.567 581.27 201.333C581.121 200.442 580.526 199.848 579.484 199.997C578.294 200.293 576.657 201.036 574.277 201.036C571.896 201.036 570.26 200.293 569.069 199.997C568.176 199.848 567.433 200.442 567.284 201.333C566.689 206.677 560.588 208.755 560.588 214.693C560.588 221.076 569.069 227.014 569.069 233.545C569.069 239.632 561.481 246.312 562.969 255.516C561.332 255.219 559.844 254.922 558.208 254.476C556.869 247.054 564.606 239.78 564.606 233.397C564.606 226.42 556.422 221.224 556.422 214.544C556.422 208.013 564.01 205.638 564.01 197.621C564.01 190.793 558.356 185.152 558.356 178.175C558.356 172.534 559.993 168.674 562.969 164.815C563.266 164.518 562.969 164.072 562.522 164.369L562.225 164.518C557.91 167.784 554.934 173.128 554.934 179.214C554.934 186.933 559.844 190.644 559.844 197.621C559.844 204.598 551.81 207.716 551.81 214.396C551.81 221.076 559.696 226.568 559.696 232.803C559.696 238.593 552.107 245.718 553 252.844C551.512 252.25 550.024 251.804 548.536 251.062C548.685 244.085 555.381 238.296 555.381 232.358C555.381 225.975 547.792 220.631 547.792 214.396C547.792 208.161 556.125 204.747 556.125 198.067C556.125 191.387 552.107 187.527 552.107 180.699C552.107 174.612 554.19 170.604 557.91 166.151C557.017 166.596 556.422 167.041 555.678 167.635C551.81 171.049 549.131 176.542 549.131 181.886C549.131 189.16 552.702 192.426 552.702 198.215C552.702 203.856 544.37 208.458 544.37 214.841C544.37 221.373 551.512 226.865 551.512 232.358C551.512 237.257 545.263 243.788 545.114 249.875C543.775 249.281 542.585 248.539 541.394 247.796C541.841 242.304 547.792 237.999 547.792 232.506C547.792 230.428 546.9 228.795 546.007 227.459C548.388 235.03 539.46 239.483 538.716 246.015C537.08 244.976 535.443 243.788 533.955 242.601C534.699 241.413 535.74 239.929 536.931 239.038C536.336 238.296 535.74 237.702 535.294 236.96C533.806 237.85 532.616 239.483 531.723 240.671C530.384 239.483 529.194 238.296 527.855 237.108C529.045 235.624 530.384 233.545 532.616 232.952C532.17 232.061 531.723 231.319 531.277 230.428C528.747 231.022 527.111 233.397 525.92 234.733C524.879 233.397 523.689 232.061 522.796 230.725C524.73 229.537 526.218 226.42 529.64 226.272C529.938 227.014 530.235 227.608 530.533 228.35C530.83 229.092 531.426 229.389 532.467 229.389C535.592 229.389 540.502 227.311 544.221 223.6C541.841 219.146 541.097 216.919 541.097 214.544C541.097 208.606 549.429 203.708 549.429 198.067C549.429 192.426 546.602 189.16 546.602 182.925C546.602 177.433 549.131 172.534 552.405 168.526C551.661 168.971 550.917 169.565 550.173 170.307C546.602 173.87 544.221 179.214 544.221 183.964C544.221 190.496 546.751 193.168 546.751 198.067C546.751 202.52 537.228 208.755 538.27 214.841C534.997 217.81 530.979 219.146 527.557 219.146C527.855 220.482 528.152 221.67 528.599 222.857C524.73 223.006 522.945 226.42 520.862 227.459C519.82 225.975 518.927 224.342 518.035 222.709C521.457 222.412 522.498 217.959 527.408 218.255C527.111 217.068 526.962 215.88 526.813 214.693C521.308 214.247 519.969 218.998 516.249 219.146C515.505 217.513 514.761 215.732 514.166 214.099L526.367 209.497V208.013C526.367 207.122 526.367 206.231 526.516 205.341C520.266 205.192 518.332 210.536 512.827 210.091C512.381 208.31 511.934 206.677 511.488 204.895C518.332 205.786 520.862 199.997 526.962 199.997C527.26 198.364 527.557 196.731 528.003 195.098C520.564 194.801 517.886 201.333 510.595 199.997C510.446 198.512 510.298 197.028 510.149 195.395C518.63 196.285 521.754 189.308 529.491 190.199C530.235 188.418 531.128 186.636 532.021 184.855C522.349 183.667 519.076 191.684 510 190.496C511.042 155.759 539.46 128 574.426 128C609.391 128 637.958 155.759 639 190.496C629.924 191.684 626.651 183.667 616.979 185.3C617.872 187.082 618.765 188.863 619.509 190.644C627.246 189.902 630.37 196.879 638.851 195.84ZM546.751 168.823C541.99 166.893 536.187 167.338 531.277 170.456C530.533 165.854 528.003 161.846 524.581 159.471C524.135 159.174 523.54 159.471 523.689 160.064C524.433 169.713 518.779 178.026 511.785 185.449C518.927 187.527 525.028 178.472 534.253 181.589C537.675 176.542 541.841 172.237 546.751 168.823ZM574.426 163.033C568.474 163.033 563.415 166.448 562.076 170.753C561.927 171.049 562.076 171.346 562.522 171.198C563.564 170.753 564.754 170.456 566.093 170.456C568.474 170.456 570.706 171.346 571.896 172.979C572.491 174.761 572.491 177.581 571.896 179.066C570.855 178.769 570.557 178.026 569.516 178.026C568.474 178.026 567.73 178.769 566.093 178.769C564.457 178.769 564.308 178.026 563.118 178.026C561.779 178.026 561.63 179.362 561.63 180.847C561.63 187.527 567.73 196.731 574.277 196.731C580.824 196.731 586.924 187.527 586.924 180.847C586.924 179.362 586.626 178.026 585.287 177.878C584.543 178.323 583.948 178.769 582.46 178.769C580.824 178.769 580.377 178.026 579.336 178.026C578.145 178.026 578.294 180.55 576.806 180.699C575.913 178.472 575.765 175.503 576.657 172.979C577.997 171.495 580.08 170.456 582.46 170.456C583.799 170.456 584.99 170.753 586.031 171.198C586.478 171.346 586.626 171.198 586.478 170.753C585.436 166.448 580.526 163.033 574.426 163.033ZM584.097 172.682C582.609 172.682 580.972 173.128 579.931 174.315C579.782 174.612 579.782 175.058 579.931 175.354C582.46 174.464 584.841 174.464 585.882 175.651C586.478 175.058 586.626 174.612 586.626 174.018C586.626 173.276 585.734 172.682 584.097 172.682ZM563.118 175.651C564.308 174.464 566.986 174.464 569.813 175.503C569.962 174.167 567.433 172.682 565.052 172.682C563.266 172.682 562.374 173.276 562.374 174.167C562.374 174.612 562.522 175.058 563.118 175.651ZM604.332 153.087C599.571 153.384 595.554 155.017 592.131 157.689C593.471 153.681 595.405 150.267 597.637 146.853C591.685 147.446 586.626 149.673 582.907 153.384L580.08 145.814L586.478 140.173L577.997 139.579L574.574 131.711L571.152 139.579L562.671 140.173L569.069 145.814L566.242 153.384C562.522 149.673 557.464 147.446 551.512 146.853C553.744 150.267 555.529 153.681 557.017 157.689C553.744 155.017 549.578 153.384 544.817 153.087C547.644 156.799 550.173 160.658 551.958 164.815C552.107 165.26 552.554 165.409 553.149 165.26C559.696 161.994 566.986 160.213 574.574 160.213C582.163 160.213 589.602 161.994 596 165.26C596.446 165.557 596.893 165.409 597.19 164.815C598.976 160.658 601.505 156.799 604.332 153.087ZM614.599 181.589C623.824 178.323 629.924 187.527 637.066 185.449C630.073 178.026 624.419 169.713 625.163 160.064C625.163 159.471 624.716 159.174 624.27 159.471C620.699 161.846 618.318 166.002 617.574 170.456C612.664 167.338 606.862 166.893 602.1 168.823C607.159 172.237 611.325 176.542 614.599 181.589Z" fill="#006341"/>
<path d="M623.08 248.093H619.806V256.852H618.616V248.093H615.343V247.054H623.08V248.093ZM624.419 247.054H626.204L629.626 254.773L633.048 247.054H634.834V257H633.495V248.687L629.924 257H629.18L625.609 248.687V257H624.419V247.054Z" fill="#006341"/>
</g>
<path d="M444.974 294C444.884 292.864 444.457 291.977 443.696 291.341C442.946 290.705 441.804 290.386 440.27 290.386C439.293 290.386 438.491 290.506 437.866 290.744C437.253 290.972 436.798 291.284 436.503 291.682C436.207 292.08 436.054 292.534 436.043 293.045C436.02 293.466 436.094 293.847 436.264 294.188C436.446 294.517 436.73 294.818 437.116 295.091C437.503 295.352 437.997 295.591 438.599 295.807C439.202 296.023 439.918 296.216 440.747 296.386L443.611 297C445.543 297.409 447.196 297.949 448.571 298.619C449.946 299.29 451.071 300.08 451.946 300.989C452.821 301.886 453.463 302.898 453.872 304.023C454.293 305.148 454.509 306.375 454.52 307.705C454.509 310 453.935 311.943 452.798 313.534C451.662 315.125 450.037 316.335 447.923 317.165C445.821 317.994 443.293 318.409 440.338 318.409C437.304 318.409 434.656 317.96 432.395 317.062C430.145 316.165 428.395 314.784 427.145 312.92C425.906 311.045 425.281 308.648 425.27 305.727H434.27C434.327 306.795 434.594 307.693 435.071 308.42C435.548 309.148 436.219 309.699 437.082 310.074C437.957 310.449 438.997 310.636 440.202 310.636C441.213 310.636 442.06 310.511 442.741 310.261C443.423 310.011 443.94 309.665 444.293 309.222C444.645 308.778 444.827 308.273 444.838 307.705C444.827 307.17 444.651 306.705 444.31 306.307C443.98 305.898 443.435 305.534 442.673 305.216C441.912 304.886 440.884 304.58 439.588 304.295L436.111 303.545C433.02 302.875 430.582 301.756 428.798 300.188C427.026 298.608 426.145 296.455 426.156 293.727C426.145 291.511 426.736 289.574 427.929 287.915C429.134 286.244 430.798 284.943 432.923 284.011C435.06 283.08 437.509 282.614 440.27 282.614C443.088 282.614 445.526 283.085 447.582 284.028C449.639 284.972 451.224 286.301 452.338 288.017C453.463 289.722 454.031 291.716 454.043 294H444.974ZM457.17 290.727V283.091H487.511V290.727H477.011V318H467.67V290.727H457.17ZM495.74 318H485.513L497.036 283.091H509.99L521.513 318H511.286L503.649 292.705H503.376L495.74 318ZM493.831 304.227H513.058V311.318H493.831V304.227ZM524.875 318V283.091H539.943C542.534 283.091 544.801 283.562 546.744 284.506C548.688 285.449 550.199 286.807 551.278 288.58C552.358 290.352 552.898 292.477 552.898 294.955C552.898 297.455 552.341 299.562 551.227 301.278C550.125 302.994 548.574 304.29 546.574 305.165C544.585 306.04 542.261 306.477 539.602 306.477H530.602V299.114H537.693C538.807 299.114 539.756 298.977 540.54 298.705C541.335 298.42 541.943 297.972 542.364 297.358C542.795 296.744 543.011 295.943 543.011 294.955C543.011 293.955 542.795 293.142 542.364 292.517C541.943 291.881 541.335 291.415 540.54 291.119C539.756 290.812 538.807 290.659 537.693 290.659H534.352V318H524.875ZM545.33 301.977L554.057 318H543.761L535.239 301.977H545.33ZM556.938 318V283.091H572.074C574.733 283.091 576.966 283.449 578.773 284.165C580.591 284.881 581.96 285.892 582.881 287.199C583.813 288.506 584.278 290.045 584.278 291.818C584.278 293.102 583.994 294.273 583.426 295.33C582.869 296.386 582.085 297.273 581.074 297.989C580.063 298.693 578.881 299.182 577.528 299.455V299.795C579.028 299.852 580.392 300.233 581.619 300.938C582.847 301.631 583.824 302.591 584.551 303.818C585.278 305.034 585.642 306.466 585.642 308.114C585.642 310.023 585.142 311.722 584.142 313.21C583.153 314.699 581.744 315.869 579.915 316.722C578.085 317.574 575.903 318 573.369 318H556.938ZM566.415 310.432H570.847C572.438 310.432 573.631 310.136 574.426 309.545C575.222 308.943 575.619 308.057 575.619 306.886C575.619 306.068 575.432 305.375 575.057 304.807C574.682 304.239 574.148 303.807 573.455 303.511C572.773 303.216 571.949 303.068 570.983 303.068H566.415V310.432ZM566.415 297.205H570.301C571.131 297.205 571.864 297.074 572.5 296.812C573.136 296.551 573.631 296.176 573.983 295.688C574.347 295.188 574.528 294.58 574.528 293.864C574.528 292.784 574.142 291.96 573.369 291.392C572.597 290.812 571.619 290.523 570.438 290.523H566.415V297.205ZM609.659 283.091H619.136V305.455C619.136 308.114 618.5 310.415 617.227 312.358C615.966 314.29 614.205 315.784 611.943 316.841C609.682 317.886 607.057 318.409 604.068 318.409C601.057 318.409 598.42 317.886 596.159 316.841C593.898 315.784 592.136 314.29 590.875 312.358C589.625 310.415 589 308.114 589 305.455V283.091H598.477V304.636C598.477 305.716 598.716 306.682 599.193 307.534C599.67 308.375 600.33 309.034 601.17 309.511C602.023 309.989 602.989 310.227 604.068 310.227C605.159 310.227 606.125 309.989 606.966 309.511C607.807 309.034 608.466 308.375 608.943 307.534C609.42 306.682 609.659 305.716 609.659 304.636V283.091ZM656.232 296.182H646.618C646.55 295.386 646.368 294.665 646.072 294.017C645.788 293.369 645.391 292.812 644.879 292.347C644.379 291.869 643.771 291.506 643.055 291.256C642.339 290.994 641.527 290.864 640.618 290.864C639.027 290.864 637.68 291.25 636.578 292.023C635.487 292.795 634.658 293.903 634.089 295.347C633.533 296.79 633.254 298.523 633.254 300.545C633.254 302.682 633.538 304.472 634.107 305.915C634.686 307.347 635.521 308.426 636.612 309.153C637.703 309.869 639.016 310.227 640.55 310.227C641.425 310.227 642.209 310.119 642.902 309.903C643.595 309.676 644.197 309.352 644.709 308.932C645.22 308.511 645.635 308.006 645.953 307.415C646.283 306.812 646.504 306.136 646.618 305.386L656.232 305.455C656.118 306.932 655.703 308.437 654.987 309.972C654.271 311.494 653.254 312.903 651.936 314.199C650.629 315.483 649.01 316.517 647.078 317.301C645.146 318.085 642.902 318.477 640.345 318.477C637.141 318.477 634.266 317.79 631.72 316.415C629.186 315.04 627.18 313.017 625.703 310.347C624.237 307.676 623.504 304.409 623.504 300.545C623.504 296.659 624.254 293.386 625.754 290.727C627.254 288.057 629.277 286.04 631.822 284.676C634.368 283.301 637.209 282.614 640.345 282.614C642.55 282.614 644.578 282.915 646.43 283.517C648.283 284.119 649.908 285 651.305 286.159C652.703 287.307 653.828 288.722 654.68 290.403C655.533 292.085 656.05 294.011 656.232 296.182ZM660.531 318V283.091H670.009V297.205H670.486L680.986 283.091H692.031L680.236 298.636L692.304 318H680.986L673.145 304.909L670.009 309V318H660.531ZM713.193 294C713.102 292.864 712.676 291.977 711.915 291.341C711.165 290.705 710.023 290.386 708.489 290.386C707.511 290.386 706.71 290.506 706.085 290.744C705.472 290.972 705.017 291.284 704.722 291.682C704.426 292.08 704.273 292.534 704.261 293.045C704.239 293.466 704.313 293.847 704.483 294.188C704.665 294.517 704.949 294.818 705.335 295.091C705.722 295.352 706.216 295.591 706.818 295.807C707.42 296.023 708.136 296.216 708.966 296.386L711.83 297C713.761 297.409 715.415 297.949 716.79 298.619C718.165 299.29 719.29 300.08 720.165 300.989C721.04 301.886 721.682 302.898 722.091 304.023C722.511 305.148 722.727 306.375 722.739 307.705C722.727 310 722.153 311.943 721.017 313.534C719.881 315.125 718.256 316.335 716.142 317.165C714.04 317.994 711.511 318.409 708.557 318.409C705.523 318.409 702.875 317.96 700.614 317.062C698.364 316.165 696.614 314.784 695.364 312.92C694.125 311.045 693.5 308.648 693.489 305.727H702.489C702.545 306.795 702.813 307.693 703.29 308.42C703.767 309.148 704.438 309.699 705.301 310.074C706.176 310.449 707.216 310.636 708.42 310.636C709.432 310.636 710.278 310.511 710.96 310.261C711.642 310.011 712.159 309.665 712.511 309.222C712.864 308.778 713.045 308.273 713.057 307.705C713.045 307.17 712.869 306.705 712.528 306.307C712.199 305.898 711.653 305.534 710.892 305.216C710.131 304.886 709.102 304.58 707.807 304.295L704.33 303.545C701.239 302.875 698.801 301.756 697.017 300.188C695.244 298.608 694.364 296.455 694.375 293.727C694.364 291.511 694.955 289.574 696.148 287.915C697.352 286.244 699.017 284.943 701.142 284.011C703.278 283.08 705.727 282.614 708.489 282.614C711.307 282.614 713.744 283.085 715.801 284.028C717.858 284.972 719.443 286.301 720.557 288.017C721.682 289.722 722.25 291.716 722.261 294H713.193Z" fill="#006241"/>
<path d="M470.17 365V338.818H481.471C483.414 338.818 485.114 339.172 486.572 339.879C488.029 340.587 489.162 341.605 489.972 342.935C490.782 344.264 491.187 345.858 491.187 347.716C491.187 349.591 490.769 351.172 489.934 352.459C489.107 353.746 487.944 354.717 486.444 355.374C484.952 356.03 483.209 356.358 481.215 356.358H474.465V350.835H479.783C480.618 350.835 481.33 350.733 481.918 350.528C482.515 350.315 482.971 349.979 483.286 349.518C483.61 349.058 483.772 348.457 483.772 347.716C483.772 346.966 483.61 346.357 483.286 345.888C482.971 345.411 482.515 345.061 481.918 344.839C481.33 344.609 480.618 344.494 479.783 344.494H477.277V365H470.17ZM485.51 352.983L492.056 365H484.334L477.942 352.983H485.51ZM497.816 365V338.818H516.686V344.545H504.924V349.045H515.714V354.773H504.924V359.273H516.635V365H497.816ZM530.459 365L522.737 338.818H530.663L534.243 354.926H534.447L538.692 338.818H544.93L549.175 354.977H549.379L552.959 338.818H560.885L553.163 365H546.362L541.913 350.375H541.709L537.26 365H530.459ZM570.528 365H562.858L571.5 338.818H581.216L589.858 365H582.188L576.46 346.028H576.256L570.528 365ZM569.097 354.67H583.517V359.989H569.097V354.67ZM595.98 365V338.818H607.281C609.224 338.818 610.924 339.172 612.382 339.879C613.839 340.587 614.973 341.605 615.782 342.935C616.592 344.264 616.997 345.858 616.997 347.716C616.997 349.591 616.579 351.172 615.744 352.459C614.917 353.746 613.754 354.717 612.254 355.374C610.762 356.03 609.019 356.358 607.025 356.358H600.275V350.835H605.593C606.429 350.835 607.14 350.733 607.728 350.528C608.325 350.315 608.781 349.979 609.096 349.518C609.42 349.058 609.582 348.457 609.582 347.716C609.582 346.966 609.42 346.357 609.096 345.888C608.781 345.411 608.325 345.061 607.728 344.839C607.14 344.609 606.429 344.494 605.593 344.494H603.088V365H595.98ZM611.321 352.983L617.866 365H610.144L603.752 352.983H611.321ZM633.7 365H623.627V338.818H633.598C636.291 338.818 638.618 339.342 640.578 340.391C642.547 341.43 644.064 342.93 645.129 344.891C646.203 346.842 646.74 349.182 646.74 351.909C646.74 354.636 646.208 356.98 645.142 358.94C644.077 360.892 642.568 362.392 640.617 363.44C638.665 364.48 636.36 365 633.7 365ZM630.735 358.966H633.445C634.74 358.966 635.844 358.757 636.756 358.339C637.676 357.922 638.375 357.202 638.852 356.179C639.338 355.156 639.581 353.733 639.581 351.909C639.581 350.085 639.334 348.662 638.84 347.639C638.354 346.616 637.638 345.896 636.692 345.479C635.754 345.061 634.604 344.852 633.24 344.852H630.735V358.966ZM667.743 347C667.674 346.148 667.355 345.483 666.784 345.006C666.221 344.528 665.365 344.29 664.214 344.29C663.481 344.29 662.88 344.379 662.412 344.558C661.951 344.729 661.61 344.963 661.389 345.261C661.167 345.56 661.052 345.901 661.044 346.284C661.027 346.599 661.082 346.885 661.21 347.141C661.346 347.388 661.559 347.614 661.849 347.818C662.139 348.014 662.51 348.193 662.961 348.355C663.413 348.517 663.95 348.662 664.572 348.79L666.72 349.25C668.169 349.557 669.409 349.962 670.44 350.464C671.471 350.967 672.315 351.56 672.971 352.241C673.627 352.915 674.109 353.673 674.416 354.517C674.731 355.361 674.893 356.281 674.902 357.278C674.893 359 674.463 360.457 673.61 361.651C672.758 362.844 671.539 363.751 669.954 364.374C668.377 364.996 666.481 365.307 664.265 365.307C661.99 365.307 660.004 364.97 658.308 364.297C656.62 363.624 655.308 362.588 654.37 361.19C653.441 359.784 652.973 357.986 652.964 355.795H659.714C659.757 356.597 659.957 357.27 660.315 357.815C660.673 358.361 661.176 358.774 661.824 359.055C662.48 359.337 663.26 359.477 664.163 359.477C664.922 359.477 665.556 359.384 666.068 359.196C666.579 359.009 666.967 358.749 667.231 358.416C667.495 358.084 667.632 357.705 667.64 357.278C667.632 356.878 667.5 356.528 667.244 356.23C666.997 355.923 666.588 355.651 666.017 355.412C665.446 355.165 664.674 354.935 663.703 354.722L661.095 354.159C658.777 353.656 656.949 352.817 655.61 351.641C654.281 350.456 653.62 348.841 653.629 346.795C653.62 345.134 654.064 343.68 654.958 342.436C655.862 341.183 657.11 340.207 658.704 339.509C660.306 338.81 662.143 338.46 664.214 338.46C666.328 338.46 668.156 338.814 669.699 339.521C671.241 340.229 672.43 341.226 673.265 342.513C674.109 343.791 674.535 345.287 674.544 347H667.743Z" fill="#006241"/>
<defs>
<clipPath id="clip0_467_2143">
<rect x="3" y="70" width="368" height="368" rx="8" fill="white"/>
</clipPath>
<clipPath id="clip1_467_2143">
<rect width="129" height="129" fill="white" transform="translate(510 128)"/>
</clipPath>
</defs>
</svg>
